<svg width="174" height="114" viewBox="0 0 174 114" fill="none" xmlns="http://www.w3.org/2000/svg">
<path d="M0.920722 88.8208L11.8208 106.079L29.0793 95.1792L18.1792 77.9207L0.920722 88.8208ZM158.993 1.49076C158.16 0.390037 156.591 0.173433 155.491 1.00696L137.553 14.5901C136.453 15.4236 136.236 16.9917 137.07 18.0924C137.903 19.1931 139.471 19.4097 140.572 18.5762L156.516 6.50228L168.59 22.4466C169.424 23.5473 170.992 23.7639 172.092 22.9304C173.193 22.0968 173.41 20.5288 172.576 19.4281L158.993 1.49076ZM14.4493 94.4386C15.2756 94.6252 16.5973 95.1246 18.5034 95.9615L20.5136 91.3834C18.624 90.5537 16.9012 89.8664 15.5507 89.5614L14.4493 94.4386ZM27.3237 100.027C30.0299 101.273 33.0405 102.626 36.294 103.98L38.2149 99.3635C35.0403 98.0425 32.0911 96.7179 29.4147 95.4857L27.3237 100.027ZM45.5127 107.523C48.5436 108.584 51.7124 109.585 54.9865 110.464L56.2832 105.635C53.1452 104.792 50.0958 103.83 47.165 102.804L45.5127 107.523ZM64.7012 112.612C67.9523 113.169 71.2741 113.567 74.6387 113.755L74.9182 108.763C71.7624 108.587 68.63 108.212 65.5454 107.683L64.7012 112.612ZM84.6975 113.649C88.0189 113.38 91.3561 112.865 94.6824 112.055L93.4999 107.197C90.4472 107.94 87.3716 108.416 84.294 108.665L84.6975 113.649ZM104.279 108.837C107.302 107.524 110.288 105.925 113.216 104.004L110.473 99.8234C107.786 101.586 105.052 103.05 102.288 104.25L104.279 108.837ZM121.16 97.8338C123.545 95.669 125.871 93.2521 128.125 90.5635L124.293 87.351C122.179 89.8726 120.011 92.1249 117.8 94.1314L121.16 97.8338ZM134.118 82.4988C135.866 79.8528 137.559 77.0096 139.19 73.9579L134.78 71.6008C133.218 74.523 131.605 77.2324 129.946 79.7423L134.118 82.4988ZM143.514 65.0372C144.791 62.1328 146.02 59.0723 147.199 55.8488L142.503 54.132C141.359 57.2608 140.169 60.2226 138.937 63.025L143.514 65.0372ZM150.308 46.5684C151.232 43.5565 152.116 40.4207 152.959 37.1567L148.118 35.9068C147.293 39.1015 146.429 42.1651 145.528 45.1023L150.308 46.5684ZM155.225 27.6008C155.906 24.4646 156.553 21.2223 157.162 17.8709L152.243 16.9759C151.643 20.2739 151.008 23.4606 150.339 26.5394L155.225 27.6008ZM158.753 8.32729C159.003 6.68949 159.244 5.02786 159.476 3.3421L154.524 2.6579C154.294 4.32141 154.056 5.96039 153.81 7.57518L158.753 8.32729Z" fill="white"/>
</svg>
