<?xml version="1.0" standalone="no"?>
<!DOCTYPE svg PUBLIC "-//W3C//DTD SVG 20010904//EN"
 "http://www.w3.org/TR/2001/REC-SVG-20010904/DTD/svg10.dtd">
<svg version="1.0" xmlns="http://www.w3.org/2000/svg"
 width="512.000000pt" height="512.000000pt" viewBox="0 0 512.000000 512.000000"
 preserveAspectRatio="xMidYMid meet">
<metadata>
Created by potrace 1.14, written by Peter Selinger 2001-2017
</metadata>
<g transform="translate(0.000000,512.000000) scale(0.100000,-0.100000)"
fill="#4184fc" stroke="none">
<path d="M680 3620 c0 -25 4 -30 24 -30 38 0 76 -18 71 -32 -4 -10 -50 -13
-199 -12 -107 1 -206 -1 -220 -3 -42 -8 -68 -55 -71 -128 -4 -74 9 -99 64
-123 20 -9 39 -17 44 -18 4 -1 10 -3 15 -4 4 -1 10 -2 15 -1 4 0 7 -183 7
-409 0 -336 -3 -410 -14 -410 -7 0 -53 13 -102 29 -94 31 -110 34 -160 32 -57
-2 -65 -17 -70 -126 -2 -55 -3 -131 -3 -170 0 -117 0 -278 -1 -315 -3 -108 18
-130 180 -186 l65 -23 2075 2 c1141 1 2088 6 2105 10 110 30 277 165 363 293
62 94 87 137 123 212 50 105 69 157 69 187 0 36 -45 82 -87 90 -58 11 -198 5
-273 -11 -14 -3 -54 -7 -89 -9 -82 -4 -98 -14 -141 -83 l-35 -57 -3 65 -3 65
-262 -1 c-144 -1 -269 -2 -278 -3 -15 -1 -17 -15 -15 -106 1 -94 -1 -106 -17
-111 -10 -3 -21 -4 -23 -1 -3 3 -5 52 -6 111 l-1 106 -26 1 c-147 4 -496 3
-509 -2 -15 -5 -17 -21 -17 -110 0 -101 -1 -104 -22 -105 -23 -1 -23 1 -23
106 0 104 -1 108 -22 112 -37 6 -517 2 -524 -5 -3 -3 -7 -51 -8 -106 -1 -55
-5 -103 -9 -107 -3 -3 -13 -4 -21 -1 -12 5 -16 29 -18 113 l-3 108 -231 1
c-127 0 -251 -1 -276 -3 l-45 -4 0 -106 c1 -99 -1 -107 -19 -107 -17 0 -19 8
-21 103 0 57 -4 106 -7 110 -12 12 -638 4 -646 -8 -4 -6 -5 -22 -2 -36 7 -36
-12 -29 -23 9 -9 27 -15 32 -45 35 -19 1 -45 5 -58 8 l-23 5 1 297 c1 163 1
309 0 324 0 25 -3 27 -47 30 l-48 3 0 50 0 50 48 -1 c42 -1 47 2 47 22 0 25 9
33 41 39 11 2 41 16 65 30 34 20 44 32 45 53 3 90 -11 131 -58 166 -23 17 -48
19 -257 22 -209 3 -259 9 -228 28 12 7 61 15 129 21 31 3 60 10 64 17 18 29
-3 34 -176 36 l-175 3 0 -31z m247 -458 l1 -52 -170 2 -171 3 -3 45 c-2 24 1
47 5 50 5 3 83 5 173 5 l163 0 2 -53z m161 1 l3 -51 -46 0 c-27 0 -46 4 -47
11 -9 76 0 95 49 93 l38 -2 3 -51z m292 -803 c0 -5 -4 -10 -10 -10 -5 0 -10 5
-10 10 0 6 5 10 10 10 6 0 10 -4 10 -10z m2915 -192 c4 -4 5 -14 2 -23 -6 -13
-140 -15 -1259 -16 -689 -1 -1282 -2 -1318 -3 -88 -2 -110 3 -110 24 0 10 5
20 10 22 20 6 2669 3 2675 -4z"/>
<path d="M1397 3162 c-14 -3 -16 -25 -19 -164 -2 -88 -1 -161 2 -163 3 -2 151
-4 328 -4 l322 -1 -1 155 c-1 84 2 159 6 164 4 7 -6 11 -27 12 -129 3 -598 3
-611 1z"/>
<path d="M2087 3158 c-12 -7 -21 -258 -11 -305 l4 -23 275 0 275 0 1 48 c2 88
-3 277 -7 281 -7 8 -525 6 -537 -1z"/>
<path d="M2687 3158 c-11 -6 -19 -273 -10 -310 4 -17 26 -18 278 -18 l273 0
-1 161 c0 128 -3 162 -14 166 -21 8 -513 9 -526 1z"/>
<path d="M3293 3160 c-17 -5 -18 -19 -18 -165 l0 -160 283 -3 c264 -2 282 -1
283 15 0 10 2 36 4 58 2 22 6 84 9 137 2 54 7 102 11 108 3 5 3 10 -2 11 -34
4 -556 3 -570 -1z"/>
<path d="M1390 2780 c-10 -6 -16 -251 -8 -266 5 -7 550 -12 639 -5 15 1 17 16
14 131 -1 72 -5 133 -8 137 -8 7 -626 10 -637 3z"/>
<path d="M2087 2778 c-16 -10 -19 -265 -3 -270 10 -4 519 -3 539 1 4 0 7 62 7
136 0 74 -3 135 -7 136 -58 4 -528 2 -536 -3z"/>
<path d="M2681 2765 c-8 -23 -6 -238 2 -252 3 -4 126 -8 274 -8 l268 0 3 138
3 137 -28 1 c-15 0 -138 2 -272 2 -235 2 -244 1 -250 -18z"/>
<path d="M3289 2782 c-13 -2 -15 -26 -14 -140 l1 -137 264 0 c146 -1 270 0
276 2 6 2 10 53 10 138 1 116 -2 135 -15 135 -106 3 -511 4 -522 2z"/>
<path d="M3894 2782 c-20 -3 -21 -8 -21 -138 0 -73 3 -135 6 -135 23 -5 534
-3 542 1 6 4 8 60 7 140 l-3 133 -255 1 c-140 1 -264 0 -276 -2z"/>
</g>
</svg>
