<?xml version="1.0" encoding="UTF-8"?>
<svg version="1.1" xmlns="http://www.w3.org/2000/svg" width="750" height="750">
<path d="M0 0 C2.57266781 0.01074183 5.14463782 0.00000429 7.71728516 -0.01269531 C55.2177271 -0.05384247 101.27044853 12.98129452 142.07275391 37.26074219 C143.44253818 38.05893195 144.81232955 38.85710955 146.18212891 39.65527344 C152.59803634 43.45889491 152.59803634 43.45889491 155.07275391 45.26074219 C155.07275391 45.92074219 155.07275391 46.58074219 155.07275391 47.26074219 C155.60384766 47.3290625 156.13494141 47.39738281 156.68212891 47.46777344 C160.0769475 48.59383255 162.56908653 50.73986736 165.32275391 52.94824219 C166.47725611 53.85896374 167.63220358 54.76912113 168.78759766 55.67871094 C169.34688965 56.12134277 169.90618164 56.56397461 170.48242188 57.02001953 C173.18773852 59.13061505 175.98145949 61.11970037 178.77978516 63.10449219 C179.20646484 63.48605469 179.63314453 63.86761719 180.07275391 64.26074219 C180.07275391 64.92074219 180.07275391 65.58074219 180.07275391 66.26074219 C180.64123047 66.50179687 181.20970703 66.74285156 181.79541016 66.99121094 C184.52064298 68.51042306 186.3396573 70.334932 188.51025391 72.57324219 C189.69941406 73.78947266 189.69941406 73.78947266 190.91259766 75.03027344 C191.62544922 75.76632813 192.33830078 76.50238281 193.07275391 77.26074219 C194.31025391 78.49824219 194.31025391 78.49824219 195.57275391 79.76074219 C196.81025391 80.99824219 196.81025391 80.99824219 198.07275391 82.26074219 C198.77400391 82.95039063 199.47525391 83.64003906 200.19775391 84.35058594 C208.56513123 92.62162832 208.56513123 92.62162832 212.07275391 97.26074219 C212.07275391 97.92074219 212.07275391 98.58074219 212.07275391 99.26074219 C212.73275391 99.26074219 213.39275391 99.26074219 214.07275391 99.26074219 C215.44213867 100.78271484 215.44213867 100.78271484 217.01416016 102.92480469 C217.59359375 103.71048828 218.17302734 104.49617188 218.77001953 105.30566406 C219.69331055 106.58280273 219.69331055 106.58280273 220.63525391 107.88574219 C221.26496094 108.75005859 221.89466797 109.614375 222.54345703 110.50488281 C230.13679274 121.00498163 237.11209763 131.73885506 243.07275391 143.26074219 C243.67603516 144.39253906 244.27931641 145.52433594 244.90087891 146.69042969 C253.46110819 163.02104167 260.16948121 180.48953257 265.07275391 198.26074219 C265.28383789 199.02418945 265.49492188 199.78763672 265.71240234 200.57421875 C268.19089321 209.6838555 270.32102859 218.81229294 271.82275391 228.13574219 C271.93828613 228.84706299 272.05381836 229.55838379 272.17285156 230.29125977 C274.08249986 243.04591376 274.25924372 255.86741249 274.25805664 268.73535156 C274.26023354 271.36117011 274.27843944 273.98656041 274.29736328 276.61230469 C274.35314515 293.00834043 273.03884546 309.16464066 269.82275391 325.26074219 C269.60659424 326.35539795 269.39043457 327.45005371 269.16772461 328.57788086 C260.10531223 372.92070078 239.05192626 411.99661012 210.86962891 446.99902344 C209.69031923 448.4834154 208.55251971 450.00194964 207.46337891 451.55371094 C207.00447266 452.11703125 206.54556641 452.68035156 206.07275391 453.26074219 C205.41275391 453.26074219 204.75275391 453.26074219 204.07275391 453.26074219 C203.81300781 453.84500977 203.55326172 454.42927734 203.28564453 455.03125 C201.9880979 457.41635383 200.57934268 459.01264856 198.66650391 460.93261719 C198.00521484 461.59648438 197.34392578 462.26035156 196.66259766 462.94433594 C195.97294922 463.62625 195.28330078 464.30816406 194.57275391 465.01074219 C193.53828125 466.05681641 193.53828125 466.05681641 192.48291016 467.12402344 C191.82162109 467.78273438 191.16033203 468.44144531 190.47900391 469.12011719 C189.87378906 469.72307617 189.26857422 470.32603516 188.64501953 470.94726562 C187.07275391 472.26074219 187.07275391 472.26074219 185.07275391 472.26074219 C184.74275391 473.25074219 184.41275391 474.24074219 184.07275391 475.26074219 C182.13916016 477.02246094 182.13916016 477.02246094 179.63525391 478.94824219 C178.72646484 479.65335938 177.81767578 480.35847656 176.88134766 481.08496094 C175.95451172 481.80296875 175.02767578 482.52097656 174.07275391 483.26074219 C172.44681473 484.59293007 170.82179371 485.92623947 169.19775391 487.26074219 C163.72095653 491.63197488 157.96553455 495.47600468 152.07275391 499.26074219 C151.48252441 499.64488281 150.89229492 500.02902344 150.28417969 500.42480469 C106.13827237 529.10750056 55.4813717 543.79986663 2.88525391 543.57324219 C1.99677765 543.57141937 1.10830139 543.56959656 0.19290161 543.56771851 C-14.35155313 543.51775546 -28.57901227 542.80595985 -42.92724609 540.26074219 C-43.93480957 540.08381836 -44.94237305 539.90689453 -45.98046875 539.72460938 C-79.75426271 533.60888562 -111.70694719 521.18917947 -140.92724609 503.26074219 C-141.52456543 502.89996582 -142.12188477 502.53918945 -142.73730469 502.16748047 C-149.64965404 497.99230245 -149.64965404 497.99230245 -151.92724609 496.26074219 C-151.92724609 495.60074219 -151.92724609 494.94074219 -151.92724609 494.26074219 C-152.50990234 494.14601563 -153.09255859 494.03128906 -153.69287109 493.91308594 C-156.09247744 493.21250157 -157.65585542 492.27881624 -159.67724609 490.82324219 C-160.59763672 490.17548828 -160.59763672 490.17548828 -161.53662109 489.51464844 C-161.99552734 489.10085938 -162.45443359 488.68707031 -162.92724609 488.26074219 C-162.92724609 487.60074219 -162.92724609 486.94074219 -162.92724609 486.26074219 C-163.91724609 486.26074219 -164.90724609 486.26074219 -165.92724609 486.26074219 C-167.08147832 485.14045797 -168.22726826 484.00975678 -169.32177734 482.83105469 C-172.01889004 480.19300285 -175.099756 478.0440995 -178.13427734 475.81152344 C-178.72595703 475.29976562 -179.31763672 474.78800781 -179.92724609 474.26074219 C-179.92724609 473.60074219 -179.92724609 472.94074219 -179.92724609 472.26074219 C-180.72388672 471.95136719 -180.72388672 471.95136719 -181.53662109 471.63574219 C-184.93498045 469.68113027 -187.43780538 467.03950502 -190.17724609 464.26074219 C-190.73154297 463.71417969 -191.28583984 463.16761719 -191.85693359 462.60449219 C-195.92724609 458.51412889 -195.92724609 458.51412889 -195.92724609 456.26074219 C-196.91724609 455.93074219 -197.90724609 455.60074219 -198.92724609 455.26074219 C-198.92724609 454.60074219 -198.92724609 453.94074219 -198.92724609 453.26074219 C-199.58724609 453.26074219 -200.24724609 453.26074219 -200.92724609 453.26074219 C-202.71542851 451.17151896 -204.39356071 449.07444492 -206.05224609 446.88574219 C-207.05548149 445.5792372 -208.05939037 444.27324909 -209.06396484 442.96777344 C-209.55558105 442.32662598 -210.04719727 441.68547852 -210.55371094 441.02490234 C-212.26661014 438.82486508 -214.06692057 436.70413854 -215.86474609 434.57324219 C-221.94997429 426.98857378 -226.87189581 418.54793765 -231.92724609 410.26074219 C-232.30381348 409.65246582 -232.68038086 409.04418945 -233.06835938 408.41748047 C-247.40923258 385.15736748 -257.12100861 358.89924931 -262.92724609 332.26074219 C-263.09708008 331.50937988 -263.26691406 330.75801758 -263.44189453 329.98388672 C-270.99166323 296.3375848 -271.54181064 260.27048181 -265.92724609 226.26074219 C-265.7711084 225.26985596 -265.6149707 224.27896973 -265.45410156 223.25805664 C-258.54758627 180.2369306 -239.37049118 141.09263909 -214.05224609 106.01074219 C-213.5756958 105.34212158 -213.09914551 104.67350098 -212.6081543 103.98461914 C-211.43143608 102.372095 -210.18509169 100.81081454 -208.92724609 99.26074219 C-208.26724609 99.26074219 -207.60724609 99.26074219 -206.92724609 99.26074219 C-206.59853516 98.45443359 -206.59853516 98.45443359 -206.26318359 97.63183594 C-204.4691877 94.4477555 -202.0510245 91.95682311 -199.55224609 89.32324219 C-196.86898365 86.47137903 -194.23582585 83.64915634 -191.79833984 80.58105469 C-190.09831062 78.47287649 -188.43112212 76.80935509 -186.36474609 75.07324219 C-183.15600848 72.34052608 -180.0641674 69.51859621 -176.98974609 66.63574219 C-172.17182389 62.2441249 -167.14849013 58.18287429 -161.98974609 54.19824219 C-161.25570557 53.6257373 -160.52166504 53.05323242 -159.76538086 52.46337891 C-159.06727295 51.93115723 -158.36916504 51.39893555 -157.64990234 50.85058594 C-156.71803101 50.13696899 -156.71803101 50.13696899 -155.76733398 49.40893555 C-153.82172667 48.1948993 -152.16807092 47.68946748 -149.92724609 47.26074219 C-149.92724609 46.60074219 -149.92724609 45.94074219 -149.92724609 45.26074219 C-148.12988281 43.95141602 -148.12988281 43.95141602 -145.60693359 42.46777344 C-144.6862207 41.92338623 -143.76550781 41.37899902 -142.81689453 40.81811523 C-141.32464355 39.95440308 -141.32464355 39.95440308 -139.80224609 39.07324219 C-138.79194336 38.48389893 -137.78164062 37.89455566 -136.74072266 37.28735352 C-129.26849528 32.961987 -121.76405745 28.89329336 -113.92724609 25.26074219 C-112.89204834 24.77613525 -112.89204834 24.77613525 -111.8359375 24.28173828 C-102.37807506 19.87441161 -92.94419205 15.94477386 -82.95556641 12.88916016 C-80.74771554 12.2051197 -78.55309982 11.48527976 -76.35693359 10.76464844 C-67.47544445 7.90765344 -58.61952161 5.6278151 -49.42724609 4.01074219 C-48.57582031 3.85984131 -47.72439453 3.70894043 -46.84716797 3.5534668 C-31.30196055 1.00047428 -15.74041561 -0.07770093 0 0 Z " fill="#5383BB" transform="translate(370.92724609375,80.7392578125)"/>
<path d="M0 0 C1.77396848 -0.00457122 3.5479352 -0.00987957 5.32189941 -0.0158844 C9.02342974 -0.02477403 12.72474381 -0.02243927 16.42626953 -0.01245117 C21.14345271 -0.00095552 25.85988792 -0.02120326 30.57697296 -0.05036831 C34.23525645 -0.06880926 37.89336317 -0.0684224 41.55168152 -0.06273079 C43.28982087 -0.0625786 45.02797299 -0.06853725 46.7660675 -0.08102226 C56.45297604 -0.14082788 64.68569452 0.12095967 73.59375 4.43359375 C74.2505777 4.73383957 74.9074054 5.03408539 75.58413696 5.34342957 C84.04262029 9.40748797 91.28581598 14.52786133 96.59375 22.43359375 C96.59375 23.42359375 96.59375 24.41359375 96.59375 25.43359375 C97.25375 25.43359375 97.91375 25.43359375 98.59375 25.43359375 C99.41131238 27.4940923 100.22259734 29.55708228 101.03125 31.62109375 C101.70994141 33.34392578 101.70994141 33.34392578 102.40234375 35.1015625 C104.40012388 40.68879677 104.7462848 45.80336696 104.75488281 51.70532227 C104.75984772 52.52558395 104.76481262 53.34584564 104.76992798 54.19096375 C104.78450162 56.89815114 104.79134531 59.60527985 104.796875 62.3125 C104.80263252 64.20474752 104.80839017 66.09699504 104.81414795 67.98924255 C104.82464579 71.95775625 104.83049572 75.92624977 104.83398438 79.89477539 C104.8394518 84.95265409 104.86344743 90.01026125 104.89195633 95.06805515 C104.91068788 98.97941333 104.91579398 102.89070764 104.91732025 106.80210686 C104.92032607 108.66502293 104.92828364 110.52793844 104.94150543 112.39081001 C105.00809442 122.49821721 104.81162868 131.72918934 101.59375 141.43359375 C101.30969299 142.32748306 101.02563599 143.22137238 100.73297119 144.14234924 C100.04773329 146.24869062 99.32547619 148.3429475 98.59375 150.43359375 C97.93375 150.43359375 97.27375 150.43359375 96.59375 150.43359375 C96.3875 151.28695312 96.18125 152.1403125 95.96875 153.01953125 C94.24126916 157.30878765 91.8586052 159.85574423 88.59375 163.05859375 C87.72133667 163.92170166 87.72133667 163.92170166 86.83129883 164.80224609 C82.16357889 169.2427563 77.82110562 171.70794099 71.59375 173.43359375 C70.2149255 173.98665274 68.83968638 174.54876108 67.46875 175.12109375 C58.88479817 178.66147941 48.73576521 177.59712221 39.6328125 177.6015625 C38.07636485 177.60478189 36.5199175 177.60814646 34.96347046 177.61164856 C31.71066588 177.61761371 28.45788778 177.61949112 25.20507812 177.61889648 C21.06075399 177.61879493 16.91660142 177.6324525 12.77231789 177.64966869 C9.56018308 177.66084883 6.348089 177.66281387 3.13593674 177.66228676 C1.60909814 177.66345762 0.08225817 177.66782846 -1.444561 177.67561913 C-19.31585776 177.75828788 -34.74325409 174.91715895 -47.9296875 161.93359375 C-50.87130231 158.65324754 -52.72940765 155.05207135 -54.51171875 151.0703125 C-55.30693088 149.2455957 -55.30693088 149.2455957 -57.40625 148.43359375 C-62.68354889 137.49506712 -61.99182954 125.59449198 -61.9375 113.76953125 C-61.94020057 111.68453796 -61.94408767 109.59954591 -61.94909668 107.51455688 C-61.9549625 103.16583142 -61.94652157 98.81743673 -61.92773438 94.46875 C-61.90491828 88.91985512 -61.91810369 83.37173321 -61.94202423 77.82286644 C-61.95653698 73.52463037 -61.95185164 69.22657505 -61.94151306 64.92833328 C-61.93886238 62.88318411 -61.94205651 60.83801804 -61.95143127 58.79288864 C-62.01328978 41.51409508 -59.59922686 28.66710367 -47.53125 15.3671875 C-33.43186316 2.23713351 -18.36951988 -0.04172816 0 0 Z " fill="#FBFEFC" transform="translate(277.40625,217.56640625)"/>
<path d="M0 0 C12.96308626 -0.70423205 22.4217248 -0.38603005 34 6 C35.08925781 6.57234375 36.17851562 7.1446875 37.30078125 7.734375 C39.89216329 9.11732348 42.45440538 10.53498432 45 12 C45 12.66 45 13.32 45 14 C45.721875 14.2475 46.44375 14.495 47.1875 14.75 C50.25614204 16.11384091 52.38693577 17.90954861 55 20 C57.6794645 21.24016669 57.6794645 21.24016669 60 22 C60 22.66 60 23.32 60 24 C60.886875 24.2475 61.77375 24.495 62.6875 24.75 C66.15183662 26.05729684 68.19357464 27.62533239 71 30 C71.7425 30.433125 72.485 30.86625 73.25 31.3125 C75.76959218 32.85861338 78.03831188 34.50651731 80.375 36.3125 C81.55835938 37.22708984 81.55835938 37.22708984 82.765625 38.16015625 C85 40 85 40 86.609375 41.68359375 C94.06051915 49.38438964 107.35956067 49.07619508 117.4375 50.3359375 C126.96057688 51.64137787 136.39866624 53.61061865 145.83837891 55.40795898 C148.80781547 55.96401178 151.78158063 56.48574848 154.7578125 57.00390625 C159.63230886 57.88687734 164.36585514 59.07046689 169.125 60.4375 C169.89763184 60.65559326 170.67026367 60.87368652 171.46630859 61.09838867 C176.69682466 62.58833002 181.86872818 64.19455251 187 66 C187 66.66 187 67.32 187 68 C189.31 68.33 191.62 68.66 194 69 C194 69.66 194 70.32 194 71 C195.65 71.33 197.3 71.66 199 72 C199 72.66 199 73.32 199 74 C199.66 74.04125 200.32 74.0825 201 74.125 C206.70188439 75.78804961 210.68304775 79.25792632 214.2265625 83.9453125 C216.99323893 89.08120489 216.4648329 94.56814843 216.3125 100.25 C216.29703125 101.39065918 216.2815625 102.53131836 216.265625 103.70654297 C216.10142598 113.48322619 215.65818132 123.24481255 215 133 C215.66 133 216.32 133 217 133 C217.90990113 142.62136193 217.90990113 142.62136193 214.9375 147.125 C210.46852571 150.12590544 204.55862561 149.71548811 199.36328125 149.859375 C196.00565991 149.84460218 196.00565991 149.84460218 193 151 C191.29983156 151.08178114 189.59663703 151.10749501 187.89453125 151.09765625 C186.91162109 151.09443359 185.92871094 151.09121094 184.91601562 151.08789062 C183.89185547 151.07951172 182.86769531 151.07113281 181.8125 151.0625 C180.25885742 151.05573242 180.25885742 151.05573242 178.67382812 151.04882812 C176.11582734 151.0370401 173.55794267 151.02058515 171 151 C171.47295148 147.63369829 171.94834534 144.28123092 172.5625 140.9375 C174.30161753 125.28544225 172.73558164 113.6661344 163 101 C161.02347659 98.68079149 158.95508326 96.47856635 156.8125 94.3125 C156.31379395 93.8074292 155.81508789 93.3023584 155.30126953 92.78198242 C152.40735637 89.98761064 149.84713757 88.20267006 146 87 C146 86.34 146 85.68 146 85 C134.38989861 81.55996996 119.20788173 80.95913453 108 86 C100.40384558 90.30486712 92.01196498 96.30541504 88.5 104.5 C88.335 105.325 88.17 106.15 88 107 C87.34 107 86.68 107 86 107 C85.814375 108.0828125 85.814375 108.0828125 85.625 109.1875 C85 112 85 112 83.9753418 114.30566406 C82.87337713 117.34978974 82.75645097 119.69130322 82.76953125 122.921875 C82.77146484 124.02917969 82.77339844 125.13648438 82.77539062 126.27734375 C82.78763672 127.42332031 82.79988281 128.56929687 82.8125 129.75 C82.81314453 130.91144531 82.81378906 132.07289063 82.81445312 133.26953125 C82.33840452 138.49475625 82.33840452 138.49475625 84 143 C84.07179964 144.51928038 84.08392007 146.04167482 84.0625 147.5625 C84.05347656 148.38878906 84.04445313 149.21507812 84.03515625 150.06640625 C84.01775391 151.02353516 84.01775391 151.02353516 84 152 C75.82036512 152.02314367 67.64074387 152.04092544 59.46108437 152.05181217 C55.66317211 152.05703656 51.8652822 152.06412617 48.06738281 152.07543945 C44.40399327 152.08628408 40.74062527 152.09228019 37.07722092 152.09487724 C35.67774491 152.09672864 34.27827012 152.10034382 32.87880325 152.10573006 C30.92263178 152.11296126 28.96643874 152.11340823 27.01025391 152.11352539 C25.33813339 152.11685631 25.33813339 152.11685631 23.63223267 152.12025452 C21 152 21 152 19 151 C19 150.34 19 149.68 19 149 C18.34 149 17.68 149 17 149 C15.01953125 146.91796875 15.01953125 146.91796875 12.8125 144.1875 C12.07644531 143.29417969 11.34039062 142.40085937 10.58203125 141.48046875 C10.05996094 140.66191406 9.53789062 139.84335937 9 139 C9.33 138.01 9.66 137.02 10 136 C11.25659424 135.97494385 12.51318848 135.9498877 13.80786133 135.92407227 C18.46519357 135.82997705 23.12237741 135.72976141 27.77954102 135.62768555 C29.79610729 135.58434471 31.81271007 135.54266902 33.8293457 135.50268555 C36.72618617 135.44496253 39.62284306 135.38127378 42.51953125 135.31640625 C43.87435356 135.29133751 43.87435356 135.29133751 45.25654602 135.26576233 C46.09719101 135.24581711 46.937836 135.22587189 47.80395508 135.20532227 C48.54341873 135.18977798 49.28288239 135.1742337 50.04475403 135.15821838 C52.2151671 135.06087775 52.2151671 135.06087775 55 134 C56.56118428 133.93259135 58.1250252 133.91485544 59.6875 133.9375 C60.49574219 133.94652344 61.30398438 133.95554687 62.13671875 133.96484375 C63.05904297 133.98224609 63.05904297 133.98224609 64 134 C64 133.01 64 132.02 64 131 C63.44014404 130.94465088 62.88028809 130.88930176 62.3034668 130.83227539 C59.76444195 130.5792418 57.225981 130.3209302 54.6875 130.0625 C53.36588867 129.93198242 53.36588867 129.93198242 52.01757812 129.79882812 C51.17001953 129.71181641 50.32246094 129.62480469 49.44921875 129.53515625 C48.66893311 129.456604 47.88864746 129.37805176 47.0847168 129.29711914 C45 129 45 129 42 128 C37.90564459 127.64967414 33.794029 127.57079865 29.6875 127.4375 C28.43686768 127.3950415 27.18623535 127.35258301 25.89770508 127.30883789 C8.93782719 126.7769923 -8.03423184 126.91108805 -25 127 C-23.02 127.66 -21.04 128.32 -19 129 C-19 129.66 -19 130.32 -19 131 C-17.8553125 131.2165625 -17.8553125 131.2165625 -16.6875 131.4375 C-14 132 -14 132 -11 133 C-11 133.66 -11 134.32 -11 135 C-10.43667969 135.08378906 -9.87335938 135.16757812 -9.29296875 135.25390625 C-1.36149951 137.83467392 7.32072266 148.2955229 12 155 C12.74609375 158.30078125 12.74609375 158.30078125 13 161 C13.66 161 14.32 161 15 161 C19.08927952 168.49384247 20.14640863 174.5082995 20 183 C17.69 183 15.38 183 13 183 C12.69707031 182.09378906 12.39414062 181.18757812 12.08203125 180.25390625 C7.74403079 167.64033569 2.55305997 155.70203998 -9 148 C-9 147.34 -9 146.68 -9 146 C-9.9590625 145.8453125 -9.9590625 145.8453125 -10.9375 145.6875 C-11.9584375 145.3471875 -11.9584375 145.3471875 -13 145 C-13.33 144.01 -13.66 143.02 -14 142 C-14.825 141.9175 -15.65 141.835 -16.5 141.75 C-20 141 -20 141 -23.4375 139.125 C-28.54717194 136.35601599 -34.13223595 135.76332021 -39.8046875 134.90625 C-43 134 -43 134 -44.43359375 132.15234375 C-45.38574676 128.53416232 -45.50824763 125.41054195 -44 122 C-40.47640978 119.12510422 -36.30450354 117.55396726 -32.1484375 115.7890625 C-28.06068037 113.46624269 -25.08842342 110.52635472 -21.8125 107.1875 C-20.88920898 106.28161133 -20.88920898 106.28161133 -19.94726562 105.35742188 C-16.42974698 101.81703745 -14.01405804 98.63364987 -12 94 C-11.360625 92.948125 -10.72125 91.89625 -10.0625 90.8125 C-3.13513125 78.70282486 -1.09436 64.69575285 0 51 C4.64477144 50.97527961 9.28950457 50.95713032 13.93432617 50.94506836 C15.51441108 50.94003986 17.09449134 50.93321622 18.67456055 50.92456055 C20.94581246 50.91243008 23.21700285 50.90675687 25.48828125 50.90234375 C26.19463211 50.89718246 26.90098297 50.89202118 27.6287384 50.88670349 C30.70254391 50.88635197 33.0590442 51.0196814 36 52 C38.87438548 52.15413876 41.72898986 52.25747285 44.60546875 52.31640625 C45.44467361 52.33718735 46.28387848 52.35796844 47.14851379 52.37937927 C49.82809294 52.44474018 52.50776969 52.50369714 55.1875 52.5625 C57.00456737 52.60569802 58.82162488 52.64931273 60.63867188 52.69335938 C65.09234799 52.8004078 69.54612226 52.90171319 74 53 C72.30963386 49.17112415 70.58602156 48.11483323 67 46 C66.67 45.01 66.34 44.02 66 43 C64.66923011 42.65657551 63.33568021 42.32380126 62 42 C61.34 41.01 60.68 40.02 60 39 C59.28585937 38.71898437 58.57171875 38.43796875 57.8359375 38.1484375 C53.95133137 36.57533254 50.94128704 34.15550015 47.625 31.625 C41.69254336 27.11536832 35.74008794 23.23524221 29 20 C29 19.34 29 18.68 29 18 C27.02 17.67 25.04 17.34 23 17 C23 16.34 23 15.68 23 15 C21.76636719 14.81824219 21.76636719 14.81824219 20.5078125 14.6328125 C13.62567428 13.59969706 6.81208134 12.42341998 0 11 C0 7.37 0 3.74 0 0 Z " fill="#FAFCFB" transform="translate(396,283)"/>
<path d="M0 0 C4.37520818 3.15404562 8.44183434 6.94485201 11.375 11.5 C11.375 12.49 11.375 13.48 11.375 14.5 C12.035 14.5 12.695 14.5 13.375 14.5 C13.87 18.46 13.87 18.46 14.375 22.5 C15.035 22.5 15.695 22.5 16.375 22.5 C17.91630495 25.5826099 17.60061558 28.80720931 17.625 32.1875 C17.645625 32.88294922 17.66625 33.57839844 17.6875 34.29492188 C17.72578031 39.41969885 16.65968375 42.91259553 14.375 47.5 C13.715 47.5 13.055 47.5 12.375 47.5 C12.33375 48.53125 12.2925 49.5625 12.25 50.625 C11.1606861 55.4491044 9.27572768 57.5908242 5.375 60.5 C2.5625 61.75 2.5625 61.75 0.375 62.5 C0.045 63.16 -0.285 63.82 -0.625 64.5 C-9.1943804 68.40884018 -19.43713699 69.20330804 -28.5625 66.69140625 C-36.59443535 63.06448545 -43.26612537 56.94837495 -46.8515625 48.88671875 C-48.92283144 43.37437218 -49.22319034 38.34232551 -49.125 32.5 C-49.14046875 31.57960938 -49.1559375 30.65921875 -49.171875 29.7109375 C-49.1204816 20.58860897 -46.67622356 12.69806097 -40.125 6.125 C-30.2125648 -3.05157756 -12.33993189 -6.88477908 0 0 Z " fill="#F8FAFA" transform="translate(539.625,383.5)"/>
<path d="M0 0 C94.92668002 -0.19614421 94.92668002 -0.19614421 125.6875 0.4375 C126.67745972 0.45714813 127.66741943 0.47679626 128.68737793 0.49703979 C138.53254702 0.6998105 148.37009996 1.01980703 158.20703125 1.47265625 C159.49041634 1.52829994 159.49041634 1.52829994 160.79972839 1.58506775 C166.76317157 1.88158579 166.76317157 1.88158579 169 3 C168.67 4.32 168.34 5.64 168 7 C167.40531418 7.02283554 166.81062836 7.04567108 166.19792175 7.06919861 C160.01739389 7.30738651 153.8371292 7.55168546 147.65698242 7.79956055 C145.34942729 7.89130417 143.04180931 7.98148092 140.73413086 8.07006836 C137.42023291 8.19755337 134.10660063 8.33064182 130.79296875 8.46484375 C129.7585112 8.50343002 128.72405365 8.5420163 127.6582489 8.58177185 C126.6974794 8.62173782 125.7367099 8.6617038 124.74682617 8.70288086 C123.47774666 8.75284462 123.47774666 8.75284462 122.18302917 8.80381775 C119.82162737 8.93165455 119.82162737 8.93165455 117 10 C115.40115997 10.08957201 113.79881019 10.12197086 112.19746399 10.12025452 C110.71459396 10.12231651 110.71459396 10.12231651 109.20176697 10.12442017 C107.5768911 10.11902725 107.5768911 10.11902725 105.91918945 10.11352539 C104.77758362 10.11367142 103.63597778 10.11381744 102.45977783 10.1139679 C98.67759313 10.11326993 94.89545737 10.10548291 91.11328125 10.09765625 C88.4944003 10.09579166 85.875519 10.09436795 83.25663757 10.09336853 C77.06247633 10.09025953 70.86833273 10.08205194 64.67417926 10.07201904 C57.62225115 10.06084454 50.5703222 10.05534408 43.51838744 10.05032361 C29.01224897 10.03986898 14.50612532 10.0220766 0 10 C0 6.7 0 3.4 0 0 Z " fill="#F3F9F7" transform="translate(432,456)"/>
<path d="M0 0 C1.80829672 1.25008338 3.42211392 2.57506637 5.046875 4.0546875 C6.5009375 5.3540625 6.5009375 5.3540625 7.984375 6.6796875 C10.046875 9.0546875 10.046875 9.0546875 10.046875 12.0546875 C10.706875 12.0546875 11.366875 12.0546875 12.046875 12.0546875 C13.02963088 15.00295513 13.18102225 16.98121254 13.171875 20.0546875 C13.17574219 21.3540625 13.17574219 21.3540625 13.1796875 22.6796875 C13.046875 25.0546875 13.046875 25.0546875 12.046875 28.0546875 C11.386875 28.0546875 10.726875 28.0546875 10.046875 28.0546875 C9.97339844 28.61800781 9.89992188 29.18132812 9.82421875 29.76171875 C8.76439903 32.88792064 6.96967278 34.45741925 4.609375 36.7421875 C3.80628906 37.52980469 3.00320313 38.31742187 2.17578125 39.12890625 C-0.98463764 41.98778058 -2.71775374 42.19194263 -6.890625 42.1796875 C-7.76589844 42.18226563 -8.64117188 42.18484375 -9.54296875 42.1875 C-11.953125 42.0546875 -11.953125 42.0546875 -14.953125 41.0546875 C-14.953125 40.3946875 -14.953125 39.7346875 -14.953125 39.0546875 C-15.54609375 38.95027344 -16.1390625 38.84585938 -16.75 38.73828125 C-19.27722872 37.9541234 -20.3761468 37.00414226 -22.203125 35.1171875 C-22.72390625 34.59253906 -23.2446875 34.06789063 -23.78125 33.52734375 C-24.953125 32.0546875 -24.953125 32.0546875 -24.953125 30.0546875 C-25.613125 30.0546875 -26.273125 30.0546875 -26.953125 30.0546875 C-27.06165423 27.17866295 -27.1406765 24.30677918 -27.203125 21.4296875 C-27.23664063 20.62144531 -27.27015625 19.81320312 -27.3046875 18.98046875 C-27.41847913 11.98228333 -25.12243422 8.63440657 -20.640625 3.3046875 C-15.37845575 -1.10084955 -6.45201364 -3.1227746 0 0 Z " fill="#5585C0" transform="translate(530.953125,394.9453125)"/>
<path d="M0 0 C7.25925207 -0.296296 13.77612323 -0.33300365 19.4375 4.8125 C21.57931536 6.89839328 21.97913158 7.64829071 22.16015625 10.69921875 C22.10730469 11.45847656 22.05445313 12.21773438 22 13 C25.02138567 13.08149592 28.04053905 13.14073421 31.0625 13.1875 C31.91005859 13.21263672 32.75761719 13.23777344 33.63085938 13.26367188 C39.22533647 13.32847277 43.03514588 12.61759241 48 10 C48.33 9.67 48.66 9.34 49 9 C50.65 9 52.3 9 54 9 C54 13.95 54 18.9 54 24 C51.77121094 23.979375 49.54242188 23.95875 47.24609375 23.9375 C45.06806769 23.94473403 42.89056576 23.96561985 40.71264648 23.98779297 C39.20842365 23.9958637 37.70405352 23.98991661 36.19995117 23.96923828 C27.39370082 23.60848104 27.39370082 23.60848104 19.49853516 26.79492188 C17.78860368 28.7830689 16.41530681 30.80014289 15 33 C10.57747301 35.6535162 5.94210237 35.66687654 0.94921875 34.53515625 C-3.03791381 33.26618186 -6.59780254 31.5887847 -9.15234375 28.125 C-11.79136423 21.50920673 -10.8577797 13.22443895 -8.375 6.6875 C-6.71039527 3.45409513 -6.38098576 3.12455304 -2.75 1.9375 C-1.38875 1.9684375 -1.38875 1.9684375 0 2 C0 1.34 0 0.68 0 0 Z " fill="#F6F9F8" transform="translate(145,292)"/>
<path d="M0 0 C3.25 1.6875 3.25 1.6875 6 4 C6.88429687 4.68964844 7.76859375 5.37929687 8.6796875 6.08984375 C11.91362439 10.14587571 11.30400204 12.90162247 10.875 17.875 C10.50046634 23.74981943 10.50046634 23.74981943 12.15234375 29.2421875 C13.80537638 30.79184064 13.80537638 30.79184064 15.7109375 32.16796875 C18.94272884 34.75450483 21.36561264 37.83610907 23.9375 41.0625 C24.43419189 41.65321289 24.93088379 42.24392578 25.44262695 42.85253906 C27.89166358 45.91137426 28.94712969 47.42625921 29.31640625 51.43359375 C29.15978516 52.70396484 29.15978516 52.70396484 29 54 C25.16901388 54.63380285 21.81349682 54.81717789 18 54 C14.6559314 51.12871352 12.44887612 47.63714934 10 44 C8.73374266 42.4784892 7.44380662 40.97619507 6.125 39.5 C5.57070312 38.8709375 5.01640625 38.241875 4.4453125 37.59375 C1.92753234 34.59923005 1.92753234 34.59923005 -1.79296875 33.76171875 C-2.91316406 33.73722656 -4.03335938 33.71273437 -5.1875 33.6875 C-11.46026812 33.29198254 -14.5045083 32.39559188 -19 28 C-20.97770278 24.12477158 -21.29735012 20.8227666 -21.3125 16.5 C-21.32925781 15.3965625 -21.34601563 14.293125 -21.36328125 13.15625 C-20.95994083 9.651959 -20.08867443 7.8132146 -18 5 C-15.5625 3.3125 -15.5625 3.3125 -13 2 C-12.37738281 1.65066406 -11.75476563 1.30132812 -11.11328125 0.94140625 C-7.47197065 -0.6806933 -3.90303535 -0.55077676 0 0 Z " fill="#F5F8F9" transform="translate(179,236)"/>
<path d="M0 0 C3.47265625 0.46484375 3.47265625 0.46484375 5.9375 1.0625 C5.9375 4.0325 5.9375 7.0025 5.9375 10.0625 C4.596875 10.0625 3.25625 10.0625 1.875 10.0625 C-2.35944094 10.50788076 -4.08562896 11.63044484 -6.8125 14.875 C-7.32296875 15.56207031 -7.8334375 16.24914062 -8.359375 16.95703125 C-10.0625 19.0625 -10.0625 19.0625 -12.76953125 20.77734375 C-15.2001557 22.75304885 -15.2001557 22.75304885 -15.36572266 24.93481445 C-15.338266 27.24195096 -15.18786872 29.51297748 -15 31.8125 C-14.57015558 41.71173803 -14.57015558 41.71173803 -17.8125 46 C-19.359375 47.65234375 -19.359375 47.65234375 -21.0625 49.0625 C-21.68125 49.61035156 -22.3 50.15820312 -22.9375 50.72265625 C-26.98284037 53.27330285 -31.46881668 52.72236611 -36.0625 52.0625 C-40.03717763 50.6596726 -42.97460302 48.8193066 -45.21875 45.1953125 C-47.77865559 39.1036853 -47.8430128 33.55570618 -45.5 27.375 C-43.72499443 23.75719351 -41.89463363 21.49518449 -38.16650391 19.65991211 C-35.65116229 18.94570453 -33.4475942 18.99853055 -30.8359375 19.00390625 C-24.88857299 18.52756481 -22.56341573 16.33251202 -18.75952148 11.92749023 C-18.09637939 11.12641846 -17.4332373 10.32534668 -16.75 9.5 C-8.10387595 -0.13123686 -8.10387595 -0.13123686 0 0 Z " fill="#F6F9F9" transform="translate(202.0625,326.9375)"/>
<path d="M0 0 C2.28125 0.8671875 2.28125 0.8671875 4.28125 3.8671875 C4.72574951 7.34910036 4.82728789 9.12457597 2.71875 11.9921875 C-5.985375 18.68766827 -14.81475343 21.39316591 -25.71875 21.2421875 C-26.97558594 21.25958984 -26.97558594 21.25958984 -28.2578125 21.27734375 C-34.24818134 21.2495247 -39.16905728 20.07517436 -44.71875 17.8671875 C-45.62367188 17.5165625 -46.52859375 17.1659375 -47.4609375 16.8046875 C-48.51667969 16.340625 -48.51667969 16.340625 -49.59375 15.8671875 C-50.31304687 15.5578125 -51.03234375 15.2484375 -51.7734375 14.9296875 C-53.87572344 13.781451 -55.23357783 12.74779251 -56.71875 10.8671875 C-57.03125 7.3046875 -57.03125 7.3046875 -56.71875 3.8671875 C-54.71875 1.8671875 -54.71875 1.8671875 -52.3359375 1.671875 C-51.43101562 1.69507813 -50.52609375 1.71828125 -49.59375 1.7421875 C-48.22863281 1.76925781 -48.22863281 1.76925781 -46.8359375 1.796875 C-46.13726562 1.82007813 -45.43859375 1.84328125 -44.71875 1.8671875 C-44.71875 2.5271875 -44.71875 3.1871875 -44.71875 3.8671875 C-43.295625 3.83625 -43.295625 3.83625 -41.84375 3.8046875 C-38.71875 3.8671875 -38.71875 3.8671875 -36.71875 4.8671875 C-36.71875 5.5271875 -36.71875 6.1871875 -36.71875 6.8671875 C-20.3411004 6.91935633 -20.3411004 6.91935633 -5.3125 1.046875 C-2.71875 -0.1328125 -2.71875 -0.1328125 0 0 Z " fill="#5687C1" transform="translate(327.71875,344.1328125)"/>
<path d="M0 0 C0 2.31 0 4.62 0 7 C-1.09957031 7.29132813 -2.19914062 7.58265625 -3.33203125 7.8828125 C-16.86660806 11.58438043 -27.31460537 16.72830878 -38 26 C-38.62648437 26.49628906 -39.25296875 26.99257813 -39.8984375 27.50390625 C-48.18380365 34.68330723 -52.69745052 46.53917876 -55 57 C-57.97 57.495 -57.97 57.495 -61 58 C-62.1195445 47.02846389 -57.40131377 35.72461536 -50.80859375 27.1328125 C-43.37534203 18.36703402 -34.63499144 10.56744895 -24 6 C-22.88625 5.484375 -21.7725 4.96875 -20.625 4.4375 C-13.73352659 1.70467434 -7.46946163 -0.4871388 0 0 Z " fill="#F2F7F4" transform="translate(241,408)"/>
<path d="M0 0 C3.91651903 -0.08859875 7.83277374 -0.14091917 11.75 -0.1875 C13.38775391 -0.22520508 13.38775391 -0.22520508 15.05859375 -0.26367188 C33.42918934 -0.4267245 33.42918934 -0.4267245 38.86352539 4.78833008 C42.21906946 9.44327348 42.77329887 14.40063032 43 20 C23.46808511 20.57446809 23.46808511 20.57446809 15 17 C15 16.34 15 15.68 15 15 C14.34 14.79375 13.68 14.5875 13 14.375 C7.79132066 11.98768864 3.19079386 8.78619079 0 4 C0 2.68 0 1.36 0 0 Z " fill="#5686C2" transform="translate(565,365)"/>
<path d="M0 0 C3.25900019 1.45614902 5.71264424 3.25517308 8 6 C9.73819756 11.21459267 9.88247944 16.81702454 7.8125 21.9375 C4.77461802 25.39440018 2.06619383 26.72357938 -2.375 27.875 C-6.75323153 28.0259735 -9.19130019 27.12408259 -13 25 C-16.35796253 21.62638263 -16.43249505 18.77960772 -16.4375 14.125 C-16.32442578 8.40582522 -16.00291963 5.12065256 -12 1 C-8.31612293 -0.84193854 -4.02993847 -0.36231308 0 0 Z " fill="#5486C1" transform="translate(271,290)"/>
<path d="M0 0 C4.22129712 2.83548551 8.09642813 6.21398674 9.703125 11.16796875 C9.96997145 16.0950979 8.02056007 19.30820435 5 23 C4.401875 23.763125 3.80375 24.52625 3.1875 25.3125 C0.12877583 27.67208722 -2.16962512 27.86791811 -6 28 C-10.48928988 27.03172179 -13.17045497 25.63798646 -16 22 C-18.18475465 17.3183829 -18.1611836 14.00202164 -17 9 C-15.69437891 5.60538518 -14.60291341 3.53198242 -11.875 1.125 C-7.70263866 -0.50766313 -4.38694016 -1.21506233 0 0 Z " fill="#5183C0" transform="translate(340,290)"/>
<path d="M0 0 C2 2.25 2 2.25 3 5 C2.76271993 8.4010144 2.430466 9.569534 0 12 C-6.00458716 12.54587156 -6.00458716 12.54587156 -8.9375 10.9375 C-10.6140629 7.88023824 -10.36528977 5.4093712 -10 2 C-7.71386967 -2.30330414 -4.17062289 -1.19160654 0 0 Z " fill="#5386C3" transform="translate(155,303)"/>
<path d="M0 0 C1.9375 1.125 1.9375 1.125 3 3 C2.86798506 6.16835865 2.47575689 8.26257683 0.75 10.9375 C-1 12 -1 12 -3.5 11.9375 C-6.5774245 10.78346581 -7.5621932 9.95549176 -9 7 C-8.8125 3.8125 -8.8125 3.8125 -8 1 C-5.20129973 -0.39935013 -3.09501208 -0.25265405 0 0 Z " fill="#5589C6" transform="translate(175,357)"/>
<path d="M0 0 C0.33 0 0.66 0 1 0 C2.04278831 10.30673915 2.15457827 20.54405466 2.13037109 30.89355469 C2.12499605 33.62700917 2.13035506 36.36030039 2.13671875 39.09375 C2.1396769 47.77472734 2.09442501 56.37174271 1 65 C0.67 65 0.34 65 0 65 C-0.76447805 43.27391528 -1.2468934 21.72026103 0 0 Z " fill="#6A93C5" transform="translate(643,319)"/>
<path d="M0 0 C1.8125 1.125 1.8125 1.125 3 3 C3.3125 6.0625 3.3125 6.0625 3 9 C1 11 1 11 -1.9375 11.3125 C-5 11 -5 11 -6.875 9.8125 C-8.40659584 7.34492892 -8.42822025 5.85480169 -8 3 C-5.85607122 -0.27231235 -3.76836426 -0.56525464 0 0 Z " fill="#5689C5" transform="translate(176,247)"/>
<path d="M0 0 C1.32 0 2.64 0 4 0 C2.67509303 3.56641624 0.46875788 5.39702696 -2.39306641 7.80737305 C-6.63075488 11.46933578 -10.11732972 14.56043709 -10.94140625 20.30859375 C-11.14616242 23.16062245 -11.10890357 25.96848337 -11.0078125 28.82421875 C-11.00523437 29.87222656 -11.00265625 30.92023438 -11 32 C-11.99 32.495 -11.99 32.495 -13 33 C-13.17499733 29.7715237 -13.28106618 26.54427074 -13.375 23.3125 C-13.42527344 22.40048828 -13.47554687 21.48847656 -13.52734375 20.54882812 C-13.67323215 13.86227655 -13.67323215 13.86227655 -11.70800781 11.34521484 C-10.1015625 10.04296875 -10.1015625 10.04296875 -7 8 C-6.34 7.01 -5.68 6.02 -5 5 C-4.34 5 -3.68 5 -3 5 C-2.690625 4.360625 -2.38125 3.72125 -2.0625 3.0625 C-1 1 -1 1 0 0 Z " fill="#618FC8" transform="translate(199,337)"/>
<path d="M0 0 C0.66 0.33 1.32 0.66 2 1 C1.03900391 1.85271484 1.03900391 1.85271484 0.05859375 2.72265625 C-5.11530342 7.34138114 -10.16792647 12.02392428 -15 17 C-15.33 16.01 -15.66 15.02 -16 14 C-12.34090553 8.41198991 -6.40022998 2.13340999 0 0 Z " fill="#D4E2E8" transform="translate(510,383)"/>
<path d="M0 0 C0.66 0.33 1.32 0.66 2 1 C-2.76008307 6.5930976 -7.74595676 11.86877855 -13 17 C-13.33 16.34 -13.66 15.68 -14 15 C-12.07341781 11.1076509 -9.5189933 8.27565076 -6.4375 5.25 C-5.65246094 4.47140625 -4.86742187 3.6928125 -4.05859375 2.890625 C-2 1 -2 1 0 0 Z " fill="#7DA4D4" transform="translate(498,372)"/>
<path d="M0 0 C1.43793392 0.31049726 2.8753318 0.6234776 4.3125 0.9375 C5.11300781 1.11152344 5.91351562 1.28554688 6.73828125 1.46484375 C9 2 9 2 12 3 C12 3.66 12 4.32 12 5 C13.2065625 5.185625 13.2065625 5.185625 14.4375 5.375 C15.7059375 5.684375 15.7059375 5.684375 17 6 C17.33 6.66 17.66 7.32 18 8 C13.51006131 7.41347648 9.77456816 6.2356462 5.625 4.4375 C4.56539062 3.98246094 3.50578125 3.52742188 2.4140625 3.05859375 C1.61742187 2.70925781 0.82078125 2.35992187 0 2 C0 1.34 0 0.68 0 0 Z " fill="#5996D1" transform="translate(530,365)"/>
<path d="M0 0 C0.66 0.33 1.32 0.66 2 1 C1.43410156 1.43828125 0.86820313 1.8765625 0.28515625 2.328125 C-4.44473151 6.41794007 -6.52546365 9.14271944 -7 15.5 C-7.03629651 17.332974 -7.04887152 19.16731817 -7 21 C-7.33 21 -7.66 21 -8 21 C-8.08150744 18.93816367 -8.1394194 16.87538651 -8.1875 14.8125 C-8.22230469 13.66394531 -8.25710937 12.51539063 -8.29296875 11.33203125 C-7.97152295 7.67612102 -7.18731979 5.90778768 -5 3 C-2.4375 1.125 -2.4375 1.125 0 0 Z " fill="#CFDAE2" transform="translate(166,238)"/>
<path d="M0 0 C4.62 0 9.24 0 14 0 C13.67 0.99 13.34 1.98 13 3 C9.04 3 5.08 3 1 3 C0.67 2.01 0.34 1.02 0 0 Z " fill="#487FC2" transform="translate(514,452)"/>
<path d="M0 0 C0.99 0.33 1.98 0.66 3 1 C2.51789063 1.39832031 2.03578125 1.79664063 1.5390625 2.20703125 C0.90742188 2.73683594 0.27578125 3.26664062 -0.375 3.8125 C-1.00148437 4.33457031 -1.62796875 4.85664063 -2.2734375 5.39453125 C-4.2221048 7.08225739 -4.2221048 7.08225739 -6 10 C-6.66 10 -7.32 10 -8 10 C-8.33 10.99 -8.66 11.98 -9 13 C-9.66 13 -10.32 13 -11 13 C-11.33 13.99 -11.66 14.98 -12 16 C-12.33 15.01 -12.66 14.02 -13 13 C-11.50260417 11.79557292 -10.00520833 10.59114583 -8.5078125 9.38671875 C-6.74707893 7.87729455 -6.74707893 7.87729455 -5 5 C-4.34 5 -3.68 5 -3 5 C-2.690625 4.360625 -2.38125 3.72125 -2.0625 3.0625 C-1 1 -1 1 0 0 Z " fill="#B1C4DD" transform="translate(199,337)"/>
<path d="M0 0 C3.63 0.66 7.26 1.32 11 2 C11 2.99 11 3.98 11 5 C8.03 4.67 5.06 4.34 2 4 C2 3.34 2 2.68 2 2 C1.34 2 0.68 2 0 2 C0 1.34 0 0.68 0 0 Z " fill="#5290CB" transform="translate(449,412)"/>
<path d="M0 0 C0.99 0 1.98 0 3 0 C3 0.66 3 1.32 3 2 C3.55171875 2.103125 4.1034375 2.20625 4.671875 2.3125 C7.50893312 3.15028898 9.72460982 4.46409018 12.25 6 C13.14203125 6.53625 14.0340625 7.0725 14.953125 7.625 C15.62859375 8.07875 16.3040625 8.5325 17 9 C17 9.33 17 9.66 17 10 C15.35 10 13.7 10 12 10 C12 9.34 12 8.68 12 8 C11.21625 7.690625 10.4325 7.38125 9.625 7.0625 C7 6 7 6 5 5 C5 4.34 5 3.68 5 3 C4.01 3 3.02 3 2 3 C2 2.34 2 1.68 2 1 C1.34 0.67 0.68 0.34 0 0 Z " fill="#5898D4" transform="translate(422,301)"/>
<path d="M0 0 C0.66 0.33 1.32 0.66 2 1 C-1.63 4.63 -5.26 8.26 -9 12 C-9.66 11.67 -10.32 11.34 -11 11 C-9.92173635 9.72486237 -8.83714481 8.45507431 -7.75 7.1875 C-7.14671875 6.47980469 -6.5434375 5.77210938 -5.921875 5.04296875 C-4.07629602 3.08110329 -2.20054668 1.54330375 0 0 Z " fill="#E7F0EB" transform="translate(236,228)"/>
<path d="M0 0 C1.485 0.99 1.485 0.99 3 2 C3.6875 5.625 3.6875 5.625 4 9 C3.01 9.66 2.02 10.32 1 11 C0.63743142 9.5437328 0.28520207 8.08488815 -0.0625 6.625 C-0.35833984 5.40683594 -0.35833984 5.40683594 -0.66015625 4.1640625 C-1 2 -1 2 0 0 Z " fill="#5E90C9" transform="translate(154,303)"/>
<path d="M0 0 C-4.455 3.465 -4.455 3.465 -9 7 C-9.33 5.68 -9.66 4.36 -10 3 C-4.5 -1.125 -4.5 -1.125 0 0 Z " fill="#6697D1" transform="translate(335,291)"/>
<path d="M0 0 C3.875 0.875 3.875 0.875 5 2 C5.1875 4.9375 5.1875 4.9375 5 8 C3 10 3 10 0.375 10.125 C-0.40875 10.08375 -1.1925 10.0425 -2 10 C-0.68 9.01 0.64 8.02 2 7 C1.34414811 3.39007621 1.34414811 3.39007621 0 0 Z " fill="#4982C3" transform="translate(174,248)"/>
<path d="M0 0 C-2.64 2.97 -5.28 5.94 -8 9 C-8.33 8.34 -8.66 7.68 -9 7 C-7.72789415 3.78625892 -6.81094894 1.56520684 -3.9375 -0.4375 C-2 -1 -2 -1 0 0 Z " fill="#D9E5E6" transform="translate(165,349)"/>
<path d="M0 0 C3.96 0 7.92 0 12 0 C10.515 1.485 10.515 1.485 9 3 C6.73828125 2.85546875 6.73828125 2.85546875 4.3125 2.1875 C3.50425781 1.97480469 2.69601562 1.76210938 1.86328125 1.54296875 C0.94095703 1.27419922 0.94095703 1.27419922 0 1 C0 0.67 0 0.34 0 0 Z " fill="#578CD7" transform="translate(368,409)"/>
<path d="M0 0 C2.4375 0.8125 2.4375 0.8125 4.4375 3.8125 C4.1075 4.8025 3.7775 5.7925 3.4375 6.8125 C2.7775 5.8225 2.1175 4.8325 1.4375 3.8125 C-2.11922179 2.5936879 -2.11922179 2.5936879 -5.5625 1.8125 C-2.5625 -0.1875 -2.5625 -0.1875 0 0 Z " fill="#5D97D5" transform="translate(327.5625,344.1875)"/>
<path d="M0 0 C-1.15173355 2.46800047 -2.04783565 4.04783565 -4 6 C-4.69748583 7.31747324 -5.36959957 8.64914193 -6 10 C-5.51171875 3.9453125 -5.51171875 3.9453125 -5 2 C-2 0 -2 0 0 0 Z " fill="#D0DDE1" transform="translate(357,403)"/>
<path d="M0 0 C3.93673644 1.31224548 6.22719294 2.91910327 9 6 C8.67 6.99 8.34 7.98 8 9 C7.4225 8.2575 6.845 7.515 6.25 6.75 C4.27746474 4.33912357 2.23955718 2.15957299 0 0 Z " fill="#B8CFE8" transform="translate(531,395)"/>
<path d="M0 0 C3.7952131 1.49097658 5.61042731 3.75700849 8 7 C6.125 6.75 6.125 6.75 4 6 C2.75 3.9375 2.75 3.9375 2 2 C1.34 2 0.68 2 0 2 C0 1.34 0 0.68 0 0 Z " fill="#4B88CA" transform="translate(495,438)"/>
</svg>
