<svg width="109" height="109" viewBox="0 0 109 109" fill="none" xmlns="http://www.w3.org/2000/svg">
<path d="M4.30622 59.2143H104.694V59.2159H4.30622V59.2143ZM9.53513 31.6922H99.4633V31.6938H9.53513V31.6922ZM5.95896 40.8659H103.04V40.8675H5.95896V40.8659ZM25.7497 95.9125H83.2503L83.2535 95.9093H25.7465L25.7497 95.9125ZM54.4992 4.07935C53.5088 4.07935 52.5264 4.11517 51.5512 4.1709H57.448C56.4662 4.11233 55.4828 4.0818 54.4992 4.07935ZM4.28711 50.0397H104.714V50.0413H4.28711V50.0397Z" fill="#C42126"/>
<path d="M69.4018 22.5176H93.4781C90.6124 19.0348 87.2946 15.9502 83.6125 13.3455H65.5334C67.0294 15.9775 68.3159 19.0831 69.4018 22.5176Z" fill="#E7E7E7"/>
<path d="M65.5333 13.3455H83.6124C75.9266 7.8888 66.8584 4.70904 57.4479 4.1709H55.8955C60.4692 4.7465 62.5702 8.13163 65.5333 13.3455Z" fill="#DC3027"/>
<path d="M103.04 40.866C102.152 37.6986 100.954 34.6263 99.464 31.6938H71.7654C72.3381 34.7311 72.7825 37.7913 73.0973 40.866H103.04Z" fill="#E7E7E7"/>
<path d="M70.2075 31.6921H99.4634C97.8071 28.426 95.8002 25.35 93.4781 22.5183H67.9219C68.8231 25.3708 69.5882 28.4479 70.2075 31.6921Z" fill="#DC3027"/>
<path d="M74.1577 59.2142H104.693C104.838 57.6626 104.92 56.0902 104.92 54.5012C104.92 52.9973 104.841 51.5125 104.712 50.0413H74.1649C74.2644 53.092 74.2628 56.1651 74.1577 59.2142Z" fill="#E7E7E7"/>
<path d="M104.713 50.0396C104.441 46.937 103.881 43.8663 103.04 40.8674H71.8108C72.1245 43.8712 72.3315 46.9443 72.4326 50.0396H104.713Z" fill="#DC3027"/>
<path d="M71.2385 77.5627H99.332C100.843 74.6321 102.061 71.5592 102.967 68.3889H72.5967C72.2623 71.5448 71.8085 74.6202 71.2385 77.5627Z" fill="#E7E7E7"/>
<path d="M102.968 68.388C103.827 65.3909 104.405 62.3202 104.694 59.2158H73.2066C73.0991 62.3135 72.8857 65.3858 72.5657 68.388H102.968Z" fill="#DC3027"/>
<path d="M83.2536 95.9092C86.9867 93.3144 90.354 90.2294 93.2648 86.7371H69.6081C68.5023 90.1859 67.1895 93.2868 65.6665 95.9092H83.2536Z" fill="#E7E7E7"/>
<path d="M68.718 86.7363H93.2647C95.6151 83.9083 97.6495 80.8322 99.332 77.5625H71.0323C70.4041 80.8091 69.6311 83.8877 68.718 86.7363ZM54.4993 104.921C64.7795 104.934 74.8156 101.789 83.2503 95.9124H65.0025C61.7639 101.492 59.6271 104.921 54.4993 104.921Z" fill="#DC3027"/>
<path d="M67.203 13.3455H25.3876C21.7053 15.9501 18.3872 19.0348 15.5212 22.5176H71.0705C69.9846 19.0831 68.6989 15.9775 67.203 13.3455Z" fill="#F3F4F5"/>
<path d="M25.3875 13.3455H67.2029C64.2389 8.13163 60.4693 4.7465 55.8956 4.1709H51.5511C42.1409 4.70893 33.0729 7.88871 25.3875 13.3455Z" fill="#E73625"/>
<path d="M5.95972 40.866H74.6872C74.3724 37.7913 73.928 34.7311 73.3553 31.6938H9.53589C8.04544 34.6263 6.8476 37.6986 5.95972 40.866Z" fill="#F3F4F5"/>
<path d="M15.5211 22.5176C13.1995 25.3494 11.1929 28.4255 9.53662 31.6913H73.3552C72.7366 28.4479 71.9715 25.3709 71.0703 22.5176H15.5211Z" fill="#E73625"/>
<path d="M4.07935 54.5011C4.08215 56.0748 4.15787 57.6475 4.30624 59.2142H75.3034C75.4085 56.165 75.4101 53.0927 75.3106 50.042H4.28713C4.15278 51.5246 4.08345 53.0124 4.07935 54.5011Z" fill="#F3F4F5"/>
<path d="M4.28711 50.0396H75.3098C75.2111 46.9758 75.0037 43.9165 74.688 40.8674H5.95896C5.11812 43.8663 4.55842 46.9369 4.28711 50.0396Z" fill="#E73625"/>
<path d="M74.6626 68.3879H6.03223C6.93875 71.5581 8.15636 74.631 9.66731 77.5617H73.3044C73.8874 74.5245 74.3405 71.4638 74.6626 68.3879Z" fill="#F3F4F5"/>
<path d="M6.03214 68.388H74.6625C74.9817 65.3858 75.1959 62.3128 75.3034 59.2158H4.30615C4.59523 62.3202 5.17306 65.3909 6.03214 68.388Z" fill="#E73625"/>
<path d="M25.7466 95.9092H67.0493C68.5723 93.286 69.8851 90.1859 70.9909 86.7371H15.7354C18.646 90.2296 22.0133 93.3146 25.7466 95.9092Z" fill="#F3F4F5"/>
<path d="M9.66797 77.5625C11.3504 80.8322 13.3849 83.9083 15.7352 86.7363H70.9907C71.9031 83.8877 72.6761 80.8091 73.3043 77.5625H9.66797ZM52.3663 104.874L52.672 104.886C53.2786 104.907 53.8869 104.921 54.4991 104.921C59.6269 104.921 63.8081 101.492 67.0475 95.9124H25.7496C33.5874 101.373 42.8217 104.483 52.3663 104.874Z" fill="#E73625"/>
<path d="M53.4571 4.10571C27.619 4.63116 6.56001 24.5813 4.29346 49.9578H53.4579L53.4571 4.10571Z" fill="#283991"/>
<path d="M14.1678 32.6467L14.936 35.012H17.4247L15.4113 36.4745L16.1804 38.8413L14.1678 37.3781L12.156 38.8413L12.9234 36.4745L10.9109 35.012H13.3995L14.1678 32.6467ZM14.1678 41.0028L14.936 43.3697H17.4247L15.4113 44.8322L16.1804 47.1991L14.1678 45.7358L12.156 47.1991L12.9234 44.8322L10.9109 43.3697H13.3995L14.1678 41.0028ZM22.5255 20.1093L23.2937 22.4754H25.7816L23.769 23.9387L24.5372 26.3039L22.5255 24.8423L20.5129 26.3039L21.2811 23.9387L19.2677 22.4754H21.7564L22.5255 20.1093ZM22.5255 28.467L23.2937 30.8331H25.7816L23.769 32.2948L24.5372 34.6617L22.5255 33.2L20.5129 34.6617L21.2811 32.2948L19.2677 30.8331H21.7564L22.5255 28.467ZM22.5255 36.8247L23.2937 39.1916H25.7816L23.769 40.6525L24.5372 43.0194L22.5255 41.5561L20.5129 43.0194L21.2811 40.6525L19.2677 39.1916H21.7564L22.5255 36.8247ZM7.8227 43.0194L7.05365 40.6525L9.06624 39.1908H6.57916L6.52344 39.0181C6.25071 39.8658 6.00143 40.7209 5.77588 41.5824L5.81091 41.5561L7.8227 43.0194ZM12.156 30.4836L14.1678 29.0203L16.1804 30.4836L15.4113 28.1167L17.4239 26.6534H14.9352L14.167 24.2882L13.3987 26.6534H12.4816C12.3112 26.9114 12.1464 27.1709 11.9808 27.4328L12.9234 28.1167L12.156 30.4836ZM22.5255 16.4845L24.5372 17.9462L23.769 15.5809L25.7808 14.1176H24.3438C23.1239 15.0291 21.9463 15.9958 20.8146 17.0147L20.5113 17.9462L22.5255 16.4845ZM28.8705 13.7681L30.8831 12.3049L32.8949 13.7681L32.1267 11.4013L34.1385 9.93957H31.6506L31.5463 9.62112C30.7027 10.0493 29.8715 10.5014 29.0536 10.9769L29.638 11.4013L28.8705 13.7681ZM30.8831 15.9312L31.6514 18.2957H34.1393L32.1267 19.759L32.8949 22.1259L30.8831 20.6626L28.8705 22.1259L29.6388 19.759L27.6254 18.2957H30.1141L30.8831 15.9312ZM30.8831 24.2889L31.6514 26.6534H34.1393L32.1267 28.1167L32.8949 30.4836L30.8831 29.0203L28.8705 30.4836L29.6388 28.1167L27.6254 26.6534H30.1141L30.8831 24.2889ZM30.8831 32.6467L31.6514 35.012H34.1393L32.1267 36.4745L32.8949 38.8413L30.8831 37.3781L28.8705 38.8413L29.6388 36.4745L27.6254 35.012H30.1141L30.8831 32.6467ZM30.8831 41.0028L31.6514 43.3697H34.1393L32.1267 44.8322L32.8949 47.1991L30.8831 45.7358L28.8705 47.1991L29.6388 44.8322L27.6254 43.3697H30.1141L30.8831 41.0028ZM39.2408 11.7516L40.009 14.1176H42.4969L40.4851 15.5809L41.2526 17.9462L39.2408 16.4845L37.2274 17.9462L37.9965 15.5809L35.9831 14.1176H38.4717L39.2408 11.7516ZM39.2408 20.1093L40.009 22.4754H42.4969L40.4851 23.9387L41.2526 26.3039L39.2408 24.8423L37.2274 26.3039L37.9965 23.9387L35.9831 22.4754H38.4717L39.2408 20.1093ZM39.2408 28.467L40.009 30.8331H42.4969L40.4851 32.2948L41.2526 34.6617L39.2408 33.2L37.2274 34.6617L37.9965 32.2948L35.9831 30.8331H38.4717L39.2408 28.467ZM39.2408 36.8247L40.009 39.1916H42.4969L40.4851 40.6525L41.2526 43.0194L39.2408 41.5561L37.2274 43.0194L37.9965 40.6525L35.9831 39.1916H38.4717L39.2408 36.8247ZM47.5985 7.57349L48.3667 9.93957H50.8546L48.842 11.4013L49.6103 13.7681L47.5985 12.3049L45.5851 13.7681L46.3541 11.4013L44.3407 9.93957H46.8286L47.5985 7.57349ZM47.5985 15.9312L48.3667 18.2957H50.8546L48.842 19.759L49.6103 22.1259L47.5985 20.6626L45.5851 22.1259L46.3541 19.759L44.3407 18.2957H46.8286L47.5985 15.9312ZM47.5985 24.2889L48.3667 26.6534H50.8546L48.842 28.1167L49.6103 30.4836L47.5985 29.0203L45.5851 30.4836L46.3541 28.1167L44.3407 26.6534H46.8286L47.5985 24.2889ZM47.5985 32.6467L48.3667 35.012H50.8546L48.842 36.4745L49.6103 38.8413L47.5985 37.3781L45.5851 38.8413L46.3541 36.4745L44.3407 35.012H46.8286L47.5985 32.6467ZM47.5985 41.0028L48.3667 43.3697H50.8546L48.842 44.8322L49.6103 47.1991L47.5985 45.7358L45.5851 47.1991L46.3541 44.8322L44.3407 43.3697H46.8286L47.5985 41.0028Z" fill="#EFEFEF"/>
</svg>
