<svg width="97" height="98" viewBox="0 0 97 98" fill="none" xmlns="http://www.w3.org/2000/svg">
<g clip-path="url(#clip0_54_2491)">
<path fill-rule="evenodd" clip-rule="evenodd" d="M0 0.5H97V97.5H0V0.5Z" fill="white"/>
<path fill-rule="evenodd" clip-rule="evenodd" d="M78.7994 75.9663V64.225H73.9538V75.9663H78.7994ZM53.1464 71.091V64.4027H48.4498V69.5154C48.4498 71.0015 48.3904 71.4181 48.3013 71.8046C47.9742 72.875 46.8445 73.3495 45.6856 73.3495C44.0808 73.3495 43.3375 72.7255 43.0401 71.7447C42.951 71.4187 42.9213 71.0619 42.8917 70.7051C42.862 70.3186 42.8917 69.9019 42.8917 69.4571V64.4032H38.1357V71.1212C38.1357 72.638 38.6414 73.7672 39.4732 74.5397C40.8999 75.9371 43.3078 76.3533 45.5371 76.3533C48.242 76.3533 50.3228 75.9668 51.8088 74.5105C52.5823 73.7667 53.1464 72.7859 53.1464 71.091ZM30.08 70.2587C29.8445 70.2178 29.6059 70.1981 29.3669 70.1998H24.0166C23.7489 70.1998 23.4515 70.2295 23.303 70.2587C23.3921 70.1691 23.5708 69.9915 23.7489 69.7535L26.1563 65.7699C26.4834 65.2355 26.6319 64.8787 26.6913 64.7303C26.7507 64.8787 26.8991 65.2355 27.2262 65.8006L29.6935 69.8139C29.8128 69.9915 29.9909 70.1691 30.08 70.2587ZM39.0571 75.9663L28.3559 59.9154H22.3519L23.927 61.7879C23.9567 61.8176 24.0166 61.8468 24.0755 61.8775C24.0161 61.9072 23.9567 61.9363 23.927 61.966L14.5937 75.9663H20.0034L21.4602 73.5584C21.5196 73.4396 21.5493 73.3203 21.5493 73.2615C21.6087 73.2615 21.7576 73.3203 21.9061 73.3203H31.5665C31.715 73.3203 31.8337 73.2906 31.8931 73.2615C31.8877 73.3451 31.9084 73.4283 31.9525 73.4995L33.4687 75.9663H39.0571ZM72.6464 69.9326C72.6464 68.6242 72.111 67.108 70.4468 64.9975L66.4336 59.9149H60.8453L64.0257 63.4818C64.5611 64.0766 65.2445 64.611 65.2445 64.611C64.472 64.1646 63.4912 63.987 62.7183 63.987C60.8755 63.987 59.002 64.3735 57.3383 65.2954C55.5544 66.2752 54.3652 67.9107 54.3652 70.0811C54.3652 71.7452 55.1085 73.0239 56.0596 74.0047C58.2003 76.1445 62.0933 76.3528 63.5204 76.3528C65.6305 76.3528 68.9301 75.8772 70.8036 74.1829C71.9037 73.1719 72.6464 71.7754 72.6464 69.9326ZM68.0092 70.0811C68.0092 71.2999 67.2061 72.2208 66.1956 72.726C65.3633 73.1724 64.382 73.2912 63.5204 73.2912C62.6589 73.2912 61.6479 73.1125 60.8156 72.6963C59.8051 72.1911 59.0316 71.2103 59.0316 70.1399C59.0316 68.8623 60.0124 67.8508 61.1724 67.3455C61.8859 67.0194 62.748 66.9002 63.4309 66.9002C64.0856 66.9002 65.0367 66.9887 65.7799 67.2867C67.118 67.8508 68.0092 68.9211 68.0092 70.0811ZM77.26 21.647C73.7797 21.6414 70.4002 22.8155 67.6731 24.9779C64.946 22.8154 61.5665 21.6412 58.0861 21.647C54.6059 21.6416 51.2267 22.8157 48.4996 24.9779C45.7728 22.8153 42.3934 21.6411 38.9131 21.647C35.433 21.6416 32.0537 22.8157 29.3267 24.9779C26.5997 22.8157 23.2204 21.6415 19.7402 21.647C11.1999 21.647 4.27905 28.5674 4.27905 37.1081C4.27905 45.6479 11.1994 52.5693 19.7402 52.5693C23.2203 52.5746 26.5996 51.4005 29.3267 49.2384C32.0537 51.4006 35.433 52.5747 38.9131 52.5693C42.3934 52.5751 45.7728 51.4009 48.4996 49.2384C51.2267 51.4005 54.6059 52.5747 58.0861 52.5693C61.5665 52.575 64.946 51.4008 67.6731 49.2384C70.4001 51.4008 73.7797 52.575 77.26 52.5693C85.8003 52.5693 92.7207 45.6484 92.7207 37.1081C92.7207 28.5679 85.8003 21.647 77.26 21.647ZM26.7969 46.7127C24.8268 48.1499 22.3655 49.0271 19.7402 49.0271C13.1519 49.0271 7.82076 43.6964 7.82076 37.1081C7.82076 30.5199 13.1519 25.1887 19.7402 25.1887C22.3655 25.1887 24.8253 26.0663 26.7969 27.5041C24.6246 30.2332 23.4452 33.62 23.4525 37.1081C23.4541 40.5949 24.6325 43.9791 26.7969 46.7127ZM29.3272 44.1901C27.8078 42.142 26.9898 39.6583 26.9947 37.1081C26.9883 34.5578 27.8065 32.0736 29.3272 30.0262C30.8476 32.0738 31.6657 34.5578 31.6596 37.1081C31.6644 39.6583 30.8464 42.1419 29.3272 44.1901ZM45.9704 46.7127C43.9235 48.2197 41.4469 49.0297 38.9051 49.0235C36.3686 49.0287 33.8975 48.2186 31.8564 46.7127C34.021 43.9794 35.1994 40.5953 35.2008 37.1086C35.2081 33.6205 34.0287 30.2337 31.8564 27.5046C33.8973 25.9982 36.3685 25.1879 38.9051 25.1932C41.5495 25.1932 43.9927 26.0487 45.9704 27.5046C43.7981 30.2337 42.6187 33.6205 42.6259 37.1086C42.6274 40.5953 43.8059 43.9793 45.9704 46.7127ZM48.4996 44.1901C46.9802 42.142 46.1622 39.6583 46.1672 37.1081C46.161 34.5578 46.9791 32.0738 48.4996 30.0262C50.0204 32.0736 50.8387 34.5577 50.8326 37.1081C50.8374 39.6583 50.0192 42.142 48.4996 44.1901ZM65.1433 46.7127C63.1657 48.1691 60.7225 49.0235 58.0785 49.0235C55.4346 49.0235 53.007 48.1676 51.0293 46.7127C53.1942 43.9795 54.3726 40.5953 54.3738 37.1086C54.3811 33.6205 53.2016 30.2337 51.0293 27.5046C53.007 26.0492 55.4346 25.1932 58.0785 25.1932C60.7225 25.1932 63.1657 26.0487 65.1433 27.5046C62.9713 30.2338 61.7919 33.6206 61.7989 37.1086C61.8006 40.5952 62.979 43.9792 65.1433 46.7127ZM67.6736 44.1901C66.1542 42.142 65.3361 39.6583 65.3411 37.1081C65.3345 34.5577 66.1527 32.0735 67.6736 30.0262C69.194 32.0738 70.0121 34.5578 70.006 37.1081C70.0106 39.6582 69.1926 42.1418 67.6736 44.1901ZM77.26 49.0271C74.6337 49.0271 72.1729 48.1499 70.2033 46.7127C72.3677 43.9793 73.5461 40.5953 73.5477 37.1086C73.5547 33.6206 72.3753 30.2338 70.2033 27.5046C72.1749 26.0673 74.6342 25.1892 77.26 25.1892C83.8473 25.1892 89.1795 30.5204 89.1795 37.1086C89.1795 43.6959 83.8473 49.0271 77.26 49.0271Z" fill="#050B20"/>
</g>
<defs>
<clipPath id="clip0_54_2491">
<rect width="97" height="97" fill="white" transform="translate(0 0.5)"/>
</clipPath>
</defs>
</svg>
