<svg width="267" height="100" viewBox="0 0 267 100" fill="none" xmlns="http://www.w3.org/2000/svg">
<g clip-path="url(#clip0_54_2421)">
<path d="M133.583 0C59.5719 0 0.244873 22.1839 0.244873 49.9972C0.244873 77.6466 60.0619 100 133.584 100C207.111 100 266.933 77.5692 266.933 49.9972C266.931 22.4308 207.111 0 133.583 0ZM266.117 46.1366C266.165 46.3807 266.198 46.6275 266.24 46.8643C266.205 46.6285 266.156 46.3834 266.117 46.1366Z" fill="#C9C9CA"/>
<path d="M133.588 1.99609C61.0485 1.99609 2.28809 23.4376 2.28809 49.9713C2.28809 76.4922 61.0485 97.9475 133.588 97.9475C206.137 97.9475 264.882 76.4922 264.882 49.9713C264.882 23.4394 206.136 1.99609 133.588 1.99609Z" fill="url(#paint0_radial_54_2421)"/>
<path d="M134.185 12.0563C195.857 12.0563 246.78 27.1232 254.559 46.6247V46.621C249.363 26.1053 197.189 9.98828 133.578 9.98828C66.5265 9.98828 12.1758 27.8915 12.1758 49.9861C12.1758 51.787 12.5396 53.5557 13.2342 55.2939C12.9332 54.1605 12.7799 52.9929 12.7782 51.8201C12.7801 29.8619 67.1327 12.0563 134.185 12.0563Z" fill="url(#paint1_linear_54_2421)"/>
<path d="M258.589 44.9824C259.12 46.5976 259.392 48.2869 259.393 49.9872C259.393 74.1756 203.066 93.7812 133.576 93.7812C71.7362 93.7812 20.3231 78.2491 9.74512 57.7979C17.7714 79.0542 70.3461 95.4753 134.078 95.5453H134.848C204.156 95.4771 260.282 76.0696 260.282 52.1225C260.284 49.6934 259.705 47.302 258.589 44.9824Z" fill="url(#paint2_linear_54_2421)"/>
<path d="M157.788 56.7271C157.511 56.0234 157.459 55.233 157.618 54.4472C157.675 54.1681 157.315 53.9175 157.02 54.2206C154.202 57.1583 153.992 60.9581 155.838 62.6642C156.496 63.2777 157.256 63.5531 158.063 63.6047C156.861 62.0792 156.293 59.0881 157.788 56.7271Z" fill="url(#paint3_linear_54_2421)"/>
<path d="M186.334 62.3835H186.338C186.482 62.1053 186.626 61.8114 186.779 61.4964C186.896 61.2541 186.838 61.186 186.738 61.1454C186.449 61.0413 186.149 60.8193 186.108 60.59C186.089 60.5485 186.087 60.5089 186.083 60.4619L186.087 60.4868C186.124 60.9299 186.241 61.7645 186.334 62.3835Z" fill="url(#paint4_linear_54_2421)"/>
<path d="M189.534 50.8789C190.475 51.7807 191.049 52.8742 191.155 53.8801C191.197 54.3564 191.56 54.4089 191.856 53.9934C191.934 53.8801 192.022 53.7392 192.126 53.5807C192.045 53.4656 191.956 53.355 191.873 53.2463C191.145 52.4081 190.363 51.6174 189.534 50.8789Z" fill="url(#paint5_linear_54_2421)"/>
<path d="M150.505 49.0283C151.26 50.061 151.613 51.5358 151.56 53.4233C151.547 53.9124 151.904 53.8802 152.136 53.5467C152.269 53.3616 152.386 53.1976 152.508 53.029V53.0143C151.957 51.3221 151.112 49.6603 150.505 49.0283Z" fill="url(#paint6_linear_54_2421)"/>
<path d="M185.591 54.0208C183.268 52.9052 179.723 54.9512 176.515 58.8985C173.886 62.1263 172.469 65.4085 172.421 68.6087C172.4 69.7491 172.832 71.1585 173.836 71.6725C174.148 71.8458 174.488 71.9633 174.841 72.0198C174.728 71.6003 174.669 71.1682 174.666 70.7338C174.626 67.4314 175.652 64.1336 178.288 60.9011C181.472 56.9732 184.823 55.0157 187.148 56.0971C187.029 55.2331 186.579 54.4878 185.591 54.0208Z" fill="url(#paint7_linear_54_2421)"/>
<path d="M116.101 60.5632C118.549 57.2433 121.307 55.9877 124.452 54.629C124.867 54.4475 124.916 54.2135 124.837 53.8469C124.703 53.2205 124.266 51.6655 124.133 51.2915C124.232 51.6333 124.144 51.8949 123.735 52.0469C120.166 53.4019 116.588 55.5059 114.113 58.8213C111.305 62.5834 110.552 67.1082 112.428 69.7152C112.875 70.325 113.407 70.7773 113.995 71.0721C112.984 67.9585 113.722 63.7837 116.101 60.5632Z" fill="url(#paint8_linear_54_2421)"/>
<path d="M134.066 80.2546C136.479 80.2546 139.444 80.2546 141.451 80.2427C141.749 80.2261 141.962 80.0575 142.118 79.8346C145.117 75.1365 148.318 70.0396 151.382 65.3379C152.053 67.71 152.399 68.8135 153.649 69.9309C154.921 71.0668 156.097 71.3652 157.828 71.38C159.401 71.3993 160.95 70.7711 162.794 70.0056C163.416 69.7401 164.013 69.4198 164.579 69.0484C164.579 68.177 164.667 67.301 164.822 66.4645C164.835 66.3742 164.746 65.7948 164.252 66.1384C163.226 66.8841 162.104 67.4875 160.916 67.932C159.217 68.5657 158.426 68.8034 156.854 68.7887C154.876 68.773 153.093 67.932 151.841 65.9754C151.14 64.9188 150.849 63.3076 150.783 62.1248C150.774 61.9949 150.604 61.7646 150.418 62.0631C147.094 67.1444 143.989 72.0543 140.69 77.2138C140.517 77.457 140.368 77.6154 140.026 77.6265C137.988 77.6265 135.755 77.621 133.51 77.6339C133.275 77.6339 133.106 77.5261 133.058 77.3621C133.234 78.1497 133.522 79.5766 133.597 79.9101C133.647 80.1358 133.816 80.2546 134.066 80.2546Z" fill="url(#paint9_linear_54_2421)"/>
<path d="M166.346 77.444C166.902 78.5125 168.15 79.7119 168.908 80.0887C173.232 82.2194 179.405 79.804 183.371 75.9922C183.411 75.9397 183.42 75.936 183.476 75.8743C183.658 76.5587 183.88 77.3905 183.913 77.5057C184.183 78.391 184.607 79.1951 184.979 79.6216C187.691 82.6873 193.451 81.2918 199.446 76.6527C202.797 74.0623 205.28 71.4609 208.324 67.9208C208.447 67.7734 208.436 67.556 208.367 67.2244C208.193 66.4543 207.92 65.0614 207.767 64.3613C207.762 64.4783 207.721 64.5908 207.65 64.6837C204.473 68.5573 200.96 72.219 197.601 74.8094C192.378 78.8561 187.164 79.8833 184.588 77.2892C183.623 76.3247 183.097 74.9466 183.033 73.7777C183.002 73.1439 182.68 73.1144 182.376 73.412C179.298 76.462 173.946 79.839 169.069 77.4329C166.554 76.1912 165.242 73.8615 164.771 71.2978C164.774 71.3246 164.783 71.3568 164.79 71.3854C165.091 73.2019 165.486 75.8245 166.346 77.444Z" fill="url(#paint10_linear_54_2421)"/>
<path d="M164.193 60.9014C165.798 60.0327 167.207 58.1904 167.032 55.2011C166.939 53.7134 166.509 52.1806 165.813 50.9443C166.286 51.8462 166.484 52.8963 166.317 54.0027C166.009 55.9316 164.964 57.6321 163.187 58.5128C161.68 59.2507 159.921 59.1208 158.688 58.0218C158.318 57.6812 158.024 57.2662 157.826 56.804C158.143 58.2613 158.42 59.3326 158.8 59.9065C159.961 61.6586 161.973 62.1008 164.193 60.9014Z" fill="url(#paint11_linear_54_2421)"/>
<path d="M211.922 35.658C210.91 37.4092 191.379 67.1459 190.144 70.2218C189.754 71.1954 189.708 71.9398 190.105 72.4759C190.508 73.0157 191.096 73.2211 191.764 73.2101C191.832 72.8342 191.975 72.4114 192.152 71.9646C193.387 68.8777 211.679 41.081 212.683 39.3216C212.766 39.1714 212.736 39.0028 212.709 38.8905C212.651 38.6113 212.037 35.6562 211.977 35.3789C211.993 35.4756 211.974 35.5749 211.922 35.658Z" fill="url(#paint12_linear_54_2421)"/>
<path d="M130.857 49.4971C130.915 49.5588 130.96 49.6205 131.009 49.6822C132.185 51.4316 132.826 53.8939 132.89 56.4373C132.96 56.9734 133.19 56.9863 133.45 56.7109C133.687 56.4695 133.919 56.2125 134.148 55.9647C133.804 54.5986 133.272 53.3697 132.724 52.1842C132.519 51.7567 131.628 50.2239 130.857 49.4971Z" fill="url(#paint13_linear_54_2421)"/>
<path d="M99.3352 77.2912C99.6908 77.4708 100.058 77.3077 100.235 77.2083C101.426 76.5984 103.746 74.815 104.745 73.5705C105.048 73.2877 105.339 73.4802 105.436 73.7814C105.853 75.1043 106.465 76.124 107.151 77.2092C107.897 78.4178 109.396 79.6706 111.339 80.203C113.853 80.9077 116.566 81.0321 120.132 79.6706C122.991 78.5762 125.988 76.3469 128.292 73.8422C131.057 70.8401 132.057 68.9167 133.105 67.6049C134.898 65.3849 137.691 61.4523 141.604 58.114C142.973 56.9431 144.471 56.1841 145.412 56.5525C145.977 55.0952 145.709 54.291 145.108 53.9041C144.192 53.3081 142.361 54.2026 140.815 55.3817C136.602 58.5727 133.062 63.5434 131.269 65.7671C130.211 67.0752 129.215 69.0051 126.453 72.0045C122.111 76.7173 116.355 79.4265 110.802 77.5555C107.771 76.5367 105.578 74.0993 104.743 71.1054C104.576 70.5278 104.252 70.3657 103.937 70.7471C103.041 71.8681 101.207 73.5143 99.6751 74.5506C99.5075 74.6713 99.0929 74.9163 98.7374 74.7395C98.4168 74.5939 97.2791 72.9874 97.0562 72.525C97.0281 72.4773 97.009 72.4248 97 72.3702V72.3905C97.3998 74.3673 97.4495 74.5976 97.9903 75.5114C98.6029 76.5192 99.1998 77.234 99.3352 77.2912Z" fill="url(#paint14_linear_54_2421)"/>
<path d="M65.8518 59.5324C67.2538 56.7053 69.227 55.3557 71.167 54.1287C72.0016 53.6 72.3719 53.0878 71.8754 51.7106C71.7344 51.3173 71.6552 50.6098 71.4986 49.9834C71.5484 50.5951 71.2462 51.1211 70.7055 51.4029C68.3362 52.6115 65.4842 54.6833 64.0767 57.5095C62.9325 59.8124 62.7004 62.599 64.4433 65.2465C64.5897 65.4574 64.7482 65.6712 64.9232 65.8674H64.9251C64.365 63.6694 64.9674 61.302 65.8518 59.5324Z" fill="url(#paint15_linear_54_2421)"/>
<path d="M90.1099 25.2028C98.7239 22.3619 108.326 24.1582 116.039 25.809C117.118 25.1356 118.062 24.6704 119.008 24.1518C119.479 23.9049 118.952 23.611 118.806 23.611C108.849 21.742 98.501 19.3174 88.6158 22.9782C81.764 25.5354 78.7619 30.9676 80.2109 34.5943C80.4873 35.2861 80.9285 35.8241 81.5043 36.2064C81.0206 32.8616 83.5281 27.3805 90.1099 25.2028Z" fill="url(#paint16_linear_54_2421)"/>
<path d="M62.0908 77.2663C64.9143 79.2561 67.6944 79.9156 70.9379 79.9727C77.5262 80.0879 83.5443 77.3676 89.9262 70.8917C96.053 64.6737 101.356 55.9842 106.586 47.373C106.759 47.0699 106.944 46.9345 107.82 46.8203C111.101 46.4159 114.041 46.2279 116.939 45.9562C117.803 45.8751 118.46 45.7959 118.777 46.1091C119.823 47.1565 121.041 48.1136 121.846 48.5816C122.381 48.588 122.831 48.7059 123.145 48.9869C123.483 48.9427 123.792 48.7547 123.992 48.5604C124.367 48.1928 124.382 47.7626 124.32 47.3978C124.191 46.6821 123.997 45.2718 123.768 44.8627C123.926 45.1741 123.824 45.6144 123.512 45.9672C123.282 46.2289 122.924 46.4767 122.468 46.4711C122.091 46.4619 121.868 46.333 121.395 46.0732C120.417 45.5509 119.211 44.6859 118.399 43.6643C118.126 43.3216 117.985 43.3124 117.294 43.3511C114.195 43.5316 109.36 43.9959 106.081 44.4077C105.291 44.5062 105.173 44.6546 105.008 44.9254C99.7838 53.5421 94.207 62.8304 88.083 69.0493C81.5158 75.7187 76.0532 77.4699 70.259 77.515C63.5721 77.562 57.6222 73.7732 56.1133 67.1158V67.1195C56.9285 70.8392 59.3245 75.3143 62.0908 77.2663Z" fill="url(#paint17_linear_54_2421)"/>
<path d="M86.7947 48.3198C86.6484 48.097 86.5679 47.8374 86.5626 47.5709C86.4944 48.6873 86.9449 50.3289 87.306 50.877C87.703 51.4887 88.8204 51.789 89.7047 51.1294C91.7037 49.6574 93.5083 48.7997 95.5275 48.4174C96.0462 47.7072 96.6062 46.9205 97.2474 46.0362C97.3036 45.9671 97.3183 45.875 97.2944 45.8289C97.2584 45.7488 97.1939 45.7257 97.0641 45.7202C94.1043 45.8022 91.5176 46.6875 89.012 48.5602C88.2907 49.0871 87.2498 49.0125 86.7947 48.3198Z" fill="url(#paint18_linear_54_2421)"/>
<path d="M167.361 28.1412C163.221 30.4137 158.894 31.1 154.369 31.1396C143.43 31.229 133.239 26.9667 122.697 24.6766C122.712 25.1363 122.831 25.6881 122.445 25.9792C116.606 30.2848 111.327 34.6613 107.789 40.8029C107.672 40.9466 107.737 41.0792 107.942 41.0645C108.875 41.0221 109.776 40.9797 110.665 40.9309C113.887 35.8847 117.333 32.9921 122.595 29.1084C122.989 28.81 123.382 28.6027 123.253 27.4798C133.829 29.8279 141.87 33.7171 155.527 33.753C159.602 33.7669 165.349 32.4081 168.44 30.5482C171.993 28.4111 172.938 26.8396 173.065 25.1787C173.107 24.66 172.97 23.8899 172.886 23.4929C172.765 22.9301 172.686 22.2115 172.526 21.6772C172.58 21.8946 172.605 22.1406 172.585 22.4105C172.477 24.321 170.999 26.157 167.361 28.1412Z" fill="url(#paint19_linear_54_2421)"/>
<path d="M121.669 35.2705C121.539 35.3939 121.392 35.5201 121.248 35.6527C120.204 36.7333 119.886 38.1639 120.039 39.2463C120.125 39.6866 120.294 39.7723 120.495 39.7345C120.702 39.6887 120.904 39.6252 121.1 39.5447C121.174 38.9487 121.424 38.3702 122.026 37.8396C122.462 37.4546 123.008 37.2759 123.475 37.3533C123.878 36.5555 123.993 35.5956 123.502 35.1673C123.03 34.7601 122.278 34.8366 121.669 35.2705Z" fill="url(#paint20_linear_54_2421)"/>
<path d="M125.876 39.014C124.873 40.9328 123.219 41.9553 121.632 42.4519C121.632 42.4519 121.299 42.5274 121.349 42.8314C121.388 43.1722 122.513 43.8852 123.216 44.3854C123.318 44.3578 123.471 44.3016 123.471 44.3016C124.286 43.9783 125.643 43.1501 126.428 41.4321C126.931 40.3239 127.205 39.4543 126.986 37.5521C126.828 36.2256 126.56 35.0262 126.204 34.4062C126.891 35.7963 126.617 37.5806 125.876 39.014Z" fill="url(#paint21_linear_54_2421)"/>
<path d="M96.4861 32.1623C93.5936 38.9625 88.0665 44.3561 81.3345 44.579C77.5696 44.7052 74.6882 42.9301 73.1562 40.2227C74.2755 42.2438 76.1694 44.0161 77.8571 45.0783C79.3153 45.9865 81.1144 46.4923 83.1723 46.4232C90.1871 46.1837 95.5023 40.4023 97.2655 35.5182C97.7362 34.2009 97.3686 32.7897 97.1512 31.8353C97.0628 31.4705 96.9421 30.6387 96.675 30.0464H96.6722C96.8712 30.5355 96.8712 31.2559 96.4861 32.1623Z" fill="url(#paint22_linear_54_2421)"/>
<path d="M133.583 0C59.5719 0 0.244873 22.1839 0.244873 49.9972C0.244873 77.6466 60.0619 100 133.584 100C207.111 100 266.933 77.5692 266.933 49.9972C266.931 22.4308 207.111 0 133.583 0ZM1.15869 50.549C1.13197 44.6977 3.71129 38.8841 9.13429 33.4113C28.2231 14.1558 78.2396 1.14135 133.362 0.916578C206.385 0.612587 265.889 22.3857 266.016 49.4519C266.042 55.3051 263.31 61.0413 257.886 66.5095C238.795 85.7686 188.932 98.8651 133.814 99.0843C60.7924 99.3893 1.28213 77.6189 1.15869 50.549ZM266.117 46.1366C266.165 46.3807 266.198 46.6275 266.24 46.8643C266.205 46.6285 266.156 46.3834 266.117 46.1366Z" fill="#4B4B4B"/>
<path d="M0.647461 49.9974C0.647461 51.3036 0.801299 52.6006 1.06844 53.8783C0.862347 52.7816 0.754143 51.6687 0.745106 50.5528C0.719313 44.6232 3.37048 38.6373 8.83863 33.1204C28.0342 13.758 78.1015 0.729706 133.361 0.497568C141.018 0.463484 148.521 0.677199 155.834 1.11476C148.427 0.649773 141.007 0.416906 133.585 0.416504C59.8694 0.416504 0.647461 22.5212 0.647461 49.9974Z" fill="url(#paint23_linear_54_2421)"/>
<path d="M258.183 66.8171C239.053 86.1058 188.999 99.2704 133.815 99.4998C126.179 99.5389 118.543 99.3312 110.92 98.8771C118.284 99.3469 125.862 99.5845 133.585 99.5845C206.881 99.5845 266.515 77.2062 266.515 50.0138C266.515 48.9747 266.419 47.9457 266.253 46.9214C266.373 47.7624 266.426 48.6108 266.434 49.4629C266.466 55.3935 263.651 61.3001 258.183 66.8171Z" fill="url(#paint24_linear_54_2421)"/>
<path d="M133.578 6.19287C64.085 6.19287 7.75 25.7947 7.75 49.9869C7.75 74.1753 64.085 93.7808 133.578 93.7808C203.066 93.7808 259.393 74.1753 259.393 49.9869C259.393 25.7947 203.065 6.19287 133.578 6.19287ZM133.578 89.9874C66.527 89.9874 12.1763 72.0833 12.1763 49.9859C12.1763 27.8895 66.5261 9.98723 133.578 9.98723C200.634 9.98723 254.978 27.8904 254.978 49.9859C254.978 72.0842 200.634 89.9874 133.578 89.9874Z" fill="white"/>
<path d="M211.922 35.6582C212.096 35.3533 211.917 35.1304 211.532 35.1304C209.516 35.1304 206.883 35.1368 204.791 35.1368C204.291 35.1368 204.038 35.1921 203.802 35.6582C203.028 37.1404 193.61 51.252 191.857 53.9907C191.56 54.408 191.198 54.3545 191.156 53.8774C190.983 52.2487 189.574 50.3723 187.36 49.4824C185.67 48.7961 184.021 48.6727 182.309 48.9021C179.211 49.3175 176.453 50.9554 174.026 52.795C170.368 55.577 167.213 59.1779 163.143 61.8392C160.921 63.2863 157.875 64.5511 155.84 62.6645C153.994 60.9567 154.206 57.1586 157.022 54.221C157.316 53.9179 157.677 54.1685 157.62 54.4476C157.352 55.7805 157.678 57.0997 158.686 58.0227C159.92 59.1217 161.678 59.2525 163.185 58.5137C164.965 57.634 166.009 55.9298 166.315 54.0036C166.786 51.0024 164.478 48.3604 161.59 48.1495C159.247 47.9836 156.999 48.7998 154.809 50.6081C153.715 51.5201 153.086 52.1879 152.138 53.5448C151.904 53.8774 151.549 53.9115 151.563 53.4214C151.67 49.5865 150.085 47.4263 146.912 47.3582C144.45 47.2946 141.822 48.6358 139.771 50.2663C137.525 52.0673 135.561 54.4633 133.45 56.7091C133.191 56.9845 132.961 56.9716 132.891 56.4355C132.827 53.8912 132.186 51.4289 131.01 49.6805C130.589 49.0734 129.718 48.7722 128.982 49.183C128.642 49.3673 127.461 49.9126 126.595 50.6072C126.172 50.96 126.007 51.4676 126.191 52.1198C127.325 55.9224 127.077 60.2363 125.536 63.887C124.125 67.2207 121.376 70.2394 118.143 71.2546C116.018 71.928 113.801 71.5982 112.431 69.7107C110.555 67.1037 111.308 62.5789 114.116 58.8168C116.591 55.5014 120.169 53.3974 123.737 52.0424C124.158 51.8775 124.246 51.6094 124.125 51.2529C123.932 50.6671 123.623 49.8693 123.496 49.5064C123.17 48.6377 122.25 48.4912 121.13 48.6147C118.536 48.9168 116.198 49.8039 113.886 51.042C107.836 54.2827 104.802 60.5532 103.47 63.9109C102.832 65.5257 102.283 66.528 101.572 67.4225C100.617 68.6218 99.4228 69.7125 97.2304 71.636C97.0332 71.8137 96.8895 72.1795 97.0544 72.5231C97.2773 72.9855 98.4159 74.592 98.7356 74.7376C99.0912 74.9144 99.5057 74.6694 99.6743 74.5487C101.206 73.5124 103.04 71.8663 103.937 70.7452C104.251 70.3638 104.574 70.5259 104.743 71.1035C105.577 74.0974 107.771 76.5348 110.801 77.5536C116.353 79.4209 122.109 76.7154 126.452 72.0026C129.213 69.0032 130.21 67.0733 131.268 65.7652C133.062 63.5415 136.602 58.569 140.813 55.3798C142.361 54.2026 144.191 53.3053 145.108 53.9022C145.846 54.3813 146.085 55.4876 144.898 57.6441C140.603 65.4926 134.28 74.7118 133.117 76.941C132.908 77.3298 133.095 77.6375 133.5 77.6375C135.746 77.6264 137.978 77.6319 140.017 77.6319C140.358 77.6163 140.508 77.4588 140.679 77.2192C143.979 72.0569 147.082 67.1461 150.408 62.0676C150.594 61.7719 150.765 62.0022 150.773 62.1284C150.84 63.3121 151.132 64.9205 151.83 65.9799C153.084 67.9365 154.866 68.7775 156.844 68.7923C158.416 68.8107 159.208 68.5712 160.906 67.9365C162.093 67.4908 163.215 66.8879 164.242 66.1439C164.737 65.8003 164.825 66.3797 164.812 66.47C164.051 70.5665 164.988 75.4239 169.062 77.432C173.941 79.8363 179.292 76.4593 182.37 73.4111C182.673 73.1172 182.994 73.1449 183.027 73.7777C183.088 74.9485 183.619 76.3275 184.582 77.2893C187.16 79.8805 192.372 78.8543 197.595 74.8103C200.954 72.2191 204.466 68.5583 207.643 64.6838C207.755 64.5327 207.847 64.2886 207.62 64.0491C207.14 63.5434 206.44 62.9658 205.959 62.5181C205.74 62.3357 205.422 62.3882 205.233 62.5282C201.982 65.6179 199.058 69.1497 194.824 72.0625C193.397 73.0629 191.125 73.8652 190.101 72.4834C189.703 71.9473 189.749 71.2002 190.141 70.2293C191.379 67.1461 210.912 37.4103 211.922 35.6582ZM186.11 60.5928C186.151 60.8213 186.446 61.0405 186.74 61.1474C186.838 61.1879 186.898 61.2561 186.78 61.4974C185.953 63.279 185.189 64.3024 184.148 65.8518C183.193 67.2797 182.111 68.3971 180.808 69.4684C178.838 71.098 176.103 72.8685 173.842 71.6756C172.837 71.1579 172.403 69.7521 172.426 68.6117C172.477 65.4106 173.893 62.1275 176.52 58.8997C179.725 54.9524 183.271 52.9065 185.596 54.022C187.999 55.1698 187.233 57.9564 186.157 60.1451C186.074 60.3109 186.065 60.4565 186.11 60.5928Z" fill="white"/>
<path d="M70.2647 77.5194C62.9827 77.5719 56.5713 73.0664 55.8334 65.2805C55.4253 60.9648 56.645 57.1143 59.088 53.9445C61.2546 51.1201 64.9264 48.7748 68.0253 48.2C69.0413 48.0166 70.3973 48.1364 70.9611 48.8033C71.8399 49.8286 71.5838 50.9561 70.7087 51.4029C68.3394 52.6115 65.4874 54.6832 64.0798 57.5094C62.9357 59.8124 62.7036 62.599 64.4465 65.2465C67.3749 69.6589 75.5237 69.7833 83.1023 62.7399C84.9806 61.0145 86.659 59.3592 88.3705 57.4017C91.7071 53.5815 92.8152 52.1878 97.2535 46.0352C97.3097 45.9661 97.3244 45.874 97.3005 45.8279C97.2646 45.7478 97.2001 45.7247 97.0702 45.7192C94.1104 45.8012 91.5256 46.6865 89.0181 48.5592C88.295 49.0852 87.2541 49.0106 86.799 48.3179C86.2933 47.533 86.6553 46.5114 87.4899 45.9366C91.5256 43.1307 95.9381 42.6185 100.444 41.8567C100.441 41.8567 100.759 41.8696 101.014 41.5287C102.863 39.1576 104.258 37.0168 106.232 34.6143C108.219 32.1806 110.783 29.9495 112.744 28.2646C115.481 25.9101 117.236 25.1188 119.019 24.1488C119.49 23.9019 118.962 23.608 118.816 23.608C108.859 21.739 98.5109 19.3144 88.6248 22.9752C81.7739 25.5324 78.7709 30.9646 80.2199 34.5913C81.2424 37.1651 84.6296 37.5824 87.7985 36.033C90.5666 34.6666 92.9146 32.5786 94.595 29.9891C95.5594 28.5032 97.5934 29.5745 96.4944 32.1575C93.6019 38.9577 88.0748 44.3513 81.3428 44.5742C75.6103 44.7639 71.9117 40.5495 71.9265 35.3476C71.9458 25.0875 83.3713 18.3297 95.3715 17.3182C109.826 16.1262 123.516 19.9767 137.865 21.7169C148.862 23.0461 159.406 23.0738 170.456 20.5368C171.761 20.2531 172.682 21.0849 172.592 22.405C172.484 24.3128 171.005 26.1487 167.368 28.1347C163.227 30.4073 158.9 31.0936 154.376 31.1332C143.437 31.2225 133.246 26.9602 122.704 24.6702C122.719 25.1298 122.838 25.6816 122.452 25.9727C116.613 30.2783 111.334 34.6549 107.796 40.7964C107.679 40.9401 107.744 41.0728 107.949 41.058C111.019 40.8968 113.782 40.8194 116.645 40.5901C117.145 40.5486 117.163 40.4252 117.122 40.0585C116.87 37.9407 117.486 35.5245 119.349 33.8617C121.254 32.1548 123.642 31.9613 125.222 33.1884C127.022 34.5913 126.863 37.1144 125.881 39.0065C124.878 40.9254 123.224 41.9479 121.636 42.4444C121.636 42.4444 121.304 42.5199 121.354 42.8239C121.415 43.3048 123.579 44.506 123.764 44.8257C123.943 45.1269 123.854 45.5985 123.52 45.9587C123.291 46.2203 122.932 46.4681 122.476 46.4617C122.1 46.4534 121.877 46.3244 121.403 46.0647C120.427 45.5414 119.219 44.6774 118.408 43.6558C118.134 43.3131 117.993 43.3039 117.302 43.3426C114.203 43.5231 109.368 43.9874 106.089 44.3992C105.299 44.4977 105.181 44.646 105.016 44.9169C99.7923 53.5336 94.2154 62.8219 88.0914 69.0408C81.5215 75.7212 76.0589 77.4715 70.2647 77.5194ZM120.041 39.2461C120.126 39.6864 120.296 39.7721 120.497 39.7343C121.491 39.5353 122.578 38.7155 123.224 37.7703C123.814 36.909 124.088 35.6663 123.504 35.1671C122.983 34.7221 122.137 34.8511 121.507 35.4047C120.261 36.5092 119.882 38.0743 120.041 39.2461Z" fill="white"/>
</g>
<defs>
<radialGradient id="paint0_radial_54_2421" cx="0" cy="0" r="1" gradientUnits="userSpaceOnUse" gradientTransform="translate(132.705 164.976) scale(574.556 291.817)">
<stop stop-color="#00082E"/>
<stop offset="0.155" stop-color="#000A30"/>
<stop offset="0.242" stop-color="#010F39"/>
<stop offset="0.312" stop-color="#011946"/>
<stop offset="0.373" stop-color="#02275A"/>
<stop offset="0.414" stop-color="#03346C"/>
<stop offset="0.439" stop-color="#0B4F87"/>
<stop offset="0.48" stop-color="#1676AF"/>
<stop offset="0.513" stop-color="#1C8EC7"/>
<stop offset="0.533" stop-color="#1F97D0"/>
<stop offset="1" stop-color="#1F97D0"/>
</radialGradient>
<linearGradient id="paint1_linear_54_2421" x1="133.344" y1="101.1" x2="133.344" y2="-0.471199" gradientUnits="userSpaceOnUse">
<stop stop-color="#00082E"/>
<stop offset="0.321" stop-color="#010A30"/>
<stop offset="0.501" stop-color="#030F39"/>
<stop offset="0.647" stop-color="#071846"/>
<stop offset="0.773" stop-color="#0D245A"/>
<stop offset="0.809" stop-color="#0F2961"/>
<stop offset="0.839" stop-color="#0B386E"/>
<stop offset="0.896" stop-color="#054E83"/>
<stop offset="0.951" stop-color="#015B90"/>
<stop offset="1" stop-color="#006094"/>
</linearGradient>
<linearGradient id="paint2_linear_54_2421" x1="24246.4" y1="101.125" x2="24246.4" y2="-0.539845" gradientUnits="userSpaceOnUse">
<stop stop-color="#00082E"/>
<stop offset="0.321" stop-color="#010A30"/>
<stop offset="0.501" stop-color="#030F39"/>
<stop offset="0.647" stop-color="#071846"/>
<stop offset="0.773" stop-color="#0D245A"/>
<stop offset="0.809" stop-color="#0F2961"/>
<stop offset="0.839" stop-color="#0B386E"/>
<stop offset="0.896" stop-color="#054E83"/>
<stop offset="0.951" stop-color="#015B90"/>
<stop offset="1" stop-color="#006094"/>
</linearGradient>
<linearGradient id="paint3_linear_54_2421" x1="156.355" y1="83.879" x2="156.355" y2="12.513" gradientUnits="userSpaceOnUse">
<stop stop-color="#00082E"/>
<stop offset="0.321" stop-color="#010A30"/>
<stop offset="0.501" stop-color="#030F39"/>
<stop offset="0.647" stop-color="#071846"/>
<stop offset="0.773" stop-color="#0D245A"/>
<stop offset="0.809" stop-color="#0F2961"/>
<stop offset="0.839" stop-color="#0B386E"/>
<stop offset="0.896" stop-color="#054E83"/>
<stop offset="0.951" stop-color="#015B90"/>
<stop offset="1" stop-color="#006094"/>
</linearGradient>
<linearGradient id="paint4_linear_54_2421" x1="186.481" y1="83.7687" x2="186.481" y2="12.8709" gradientUnits="userSpaceOnUse">
<stop stop-color="#00082E"/>
<stop offset="0.321" stop-color="#010A30"/>
<stop offset="0.501" stop-color="#030F39"/>
<stop offset="0.647" stop-color="#071846"/>
<stop offset="0.773" stop-color="#0D245A"/>
<stop offset="0.809" stop-color="#0F2961"/>
<stop offset="0.839" stop-color="#0B386E"/>
<stop offset="0.896" stop-color="#054E83"/>
<stop offset="0.951" stop-color="#015B90"/>
<stop offset="1" stop-color="#006094"/>
</linearGradient>
<linearGradient id="paint5_linear_54_2421" x1="190.848" y1="83.5639" x2="190.848" y2="13.0157" gradientUnits="userSpaceOnUse">
<stop stop-color="#00082E"/>
<stop offset="0.321" stop-color="#010A30"/>
<stop offset="0.501" stop-color="#030F39"/>
<stop offset="0.647" stop-color="#071846"/>
<stop offset="0.773" stop-color="#0D245A"/>
<stop offset="0.809" stop-color="#0F2961"/>
<stop offset="0.839" stop-color="#0B386E"/>
<stop offset="0.896" stop-color="#054E83"/>
<stop offset="0.951" stop-color="#015B90"/>
<stop offset="1" stop-color="#006094"/>
</linearGradient>
<linearGradient id="paint6_linear_54_2421" x1="151.498" y1="84.0336" x2="151.498" y2="12.5015" gradientUnits="userSpaceOnUse">
<stop stop-color="#00082E"/>
<stop offset="0.321" stop-color="#010A30"/>
<stop offset="0.501" stop-color="#030F39"/>
<stop offset="0.647" stop-color="#071846"/>
<stop offset="0.773" stop-color="#0D245A"/>
<stop offset="0.809" stop-color="#0F2961"/>
<stop offset="0.839" stop-color="#0B386E"/>
<stop offset="0.896" stop-color="#054E83"/>
<stop offset="0.951" stop-color="#015B90"/>
<stop offset="1" stop-color="#006094"/>
</linearGradient>
<linearGradient id="paint7_linear_54_2421" x1="179.795" y1="83.8681" x2="179.795" y2="12.6147" gradientUnits="userSpaceOnUse">
<stop stop-color="#00082E"/>
<stop offset="0.321" stop-color="#010A30"/>
<stop offset="0.501" stop-color="#030F39"/>
<stop offset="0.647" stop-color="#071846"/>
<stop offset="0.773" stop-color="#0D245A"/>
<stop offset="0.809" stop-color="#0F2961"/>
<stop offset="0.839" stop-color="#0B386E"/>
<stop offset="0.896" stop-color="#054E83"/>
<stop offset="0.951" stop-color="#015B90"/>
<stop offset="1" stop-color="#006094"/>
</linearGradient>
<linearGradient id="paint8_linear_54_2421" x1="118.169" y1="83.8169" x2="118.169" y2="12.6383" gradientUnits="userSpaceOnUse">
<stop stop-color="#00082E"/>
<stop offset="0.321" stop-color="#010A30"/>
<stop offset="0.501" stop-color="#030F39"/>
<stop offset="0.647" stop-color="#071846"/>
<stop offset="0.773" stop-color="#0D245A"/>
<stop offset="0.809" stop-color="#0F2961"/>
<stop offset="0.839" stop-color="#0B386E"/>
<stop offset="0.896" stop-color="#054E83"/>
<stop offset="0.951" stop-color="#015B90"/>
<stop offset="1" stop-color="#006094"/>
</linearGradient>
<linearGradient id="paint9_linear_54_2421" x1="148.925" y1="83.8698" x2="148.925" y2="12.563" gradientUnits="userSpaceOnUse">
<stop stop-color="#00082E"/>
<stop offset="0.321" stop-color="#010A30"/>
<stop offset="0.501" stop-color="#030F39"/>
<stop offset="0.647" stop-color="#071846"/>
<stop offset="0.773" stop-color="#0D245A"/>
<stop offset="0.809" stop-color="#0F2961"/>
<stop offset="0.839" stop-color="#0B386E"/>
<stop offset="0.896" stop-color="#054E83"/>
<stop offset="0.951" stop-color="#015B90"/>
<stop offset="1" stop-color="#006094"/>
</linearGradient>
<linearGradient id="paint10_linear_54_2421" x1="186.636" y1="84.0388" x2="186.636" y2="12.1939" gradientUnits="userSpaceOnUse">
<stop stop-color="#00082E"/>
<stop offset="0.321" stop-color="#010A30"/>
<stop offset="0.501" stop-color="#030F39"/>
<stop offset="0.647" stop-color="#071846"/>
<stop offset="0.773" stop-color="#0D245A"/>
<stop offset="0.809" stop-color="#0F2961"/>
<stop offset="0.839" stop-color="#0B386E"/>
<stop offset="0.896" stop-color="#054E83"/>
<stop offset="0.951" stop-color="#015B90"/>
<stop offset="1" stop-color="#006094"/>
</linearGradient>
<linearGradient id="paint11_linear_54_2421" x1="162.418" y1="84.1033" x2="162.418" y2="12.4388" gradientUnits="userSpaceOnUse">
<stop stop-color="#00082E"/>
<stop offset="0.321" stop-color="#010A30"/>
<stop offset="0.501" stop-color="#030F39"/>
<stop offset="0.647" stop-color="#071846"/>
<stop offset="0.773" stop-color="#0D245A"/>
<stop offset="0.809" stop-color="#0F2961"/>
<stop offset="0.839" stop-color="#0B386E"/>
<stop offset="0.896" stop-color="#054E83"/>
<stop offset="0.951" stop-color="#015B90"/>
<stop offset="1" stop-color="#006094"/>
</linearGradient>
<linearGradient id="paint12_linear_54_2421" x1="201.264" y1="83.8917" x2="201.264" y2="12.6948" gradientUnits="userSpaceOnUse">
<stop stop-color="#00082E"/>
<stop offset="0.321" stop-color="#010A30"/>
<stop offset="0.501" stop-color="#030F39"/>
<stop offset="0.647" stop-color="#071846"/>
<stop offset="0.773" stop-color="#0D245A"/>
<stop offset="0.809" stop-color="#0F2961"/>
<stop offset="0.839" stop-color="#0B386E"/>
<stop offset="0.896" stop-color="#054E83"/>
<stop offset="0.951" stop-color="#015B90"/>
<stop offset="1" stop-color="#006094"/>
</linearGradient>
<linearGradient id="paint13_linear_54_2421" x1="132.51" y1="83.9332" x2="132.51" y2="12.5474" gradientUnits="userSpaceOnUse">
<stop stop-color="#00082E"/>
<stop offset="0.321" stop-color="#010A30"/>
<stop offset="0.501" stop-color="#030F39"/>
<stop offset="0.647" stop-color="#071846"/>
<stop offset="0.773" stop-color="#0D245A"/>
<stop offset="0.809" stop-color="#0F2961"/>
<stop offset="0.839" stop-color="#0B386E"/>
<stop offset="0.896" stop-color="#054E83"/>
<stop offset="0.951" stop-color="#015B90"/>
<stop offset="1" stop-color="#006094"/>
</linearGradient>
<linearGradient id="paint14_linear_54_2421" x1="121.393" y1="83.8802" x2="121.393" y2="12.6736" gradientUnits="userSpaceOnUse">
<stop stop-color="#00082E"/>
<stop offset="0.321" stop-color="#010A30"/>
<stop offset="0.501" stop-color="#030F39"/>
<stop offset="0.647" stop-color="#071846"/>
<stop offset="0.773" stop-color="#0D245A"/>
<stop offset="0.809" stop-color="#0F2961"/>
<stop offset="0.839" stop-color="#0B386E"/>
<stop offset="0.896" stop-color="#054E83"/>
<stop offset="0.951" stop-color="#015B90"/>
<stop offset="1" stop-color="#006094"/>
</linearGradient>
<linearGradient id="paint15_linear_54_2421" x1="67.6278" y1="83.9025" x2="67.6278" y2="12.6459" gradientUnits="userSpaceOnUse">
<stop stop-color="#00082E"/>
<stop offset="0.321" stop-color="#010A30"/>
<stop offset="0.501" stop-color="#030F39"/>
<stop offset="0.647" stop-color="#071846"/>
<stop offset="0.773" stop-color="#0D245A"/>
<stop offset="0.809" stop-color="#0F2961"/>
<stop offset="0.839" stop-color="#0B386E"/>
<stop offset="0.896" stop-color="#054E83"/>
<stop offset="0.951" stop-color="#015B90"/>
<stop offset="1" stop-color="#006094"/>
</linearGradient>
<linearGradient id="paint16_linear_54_2421" x1="99.527" y1="84.3069" x2="99.527" y2="12.3754" gradientUnits="userSpaceOnUse">
<stop stop-color="#00082E"/>
<stop offset="0.321" stop-color="#010A30"/>
<stop offset="0.501" stop-color="#030F39"/>
<stop offset="0.647" stop-color="#071846"/>
<stop offset="0.773" stop-color="#0D245A"/>
<stop offset="0.809" stop-color="#0F2961"/>
<stop offset="0.839" stop-color="#0B386E"/>
<stop offset="0.896" stop-color="#054E83"/>
<stop offset="0.951" stop-color="#015B90"/>
<stop offset="1" stop-color="#006094"/>
</linearGradient>
<linearGradient id="paint17_linear_54_2421" x1="90.2294" y1="83.8892" x2="90.2294" y2="12.6152" gradientUnits="userSpaceOnUse">
<stop stop-color="#00082E"/>
<stop offset="0.321" stop-color="#010A30"/>
<stop offset="0.501" stop-color="#030F39"/>
<stop offset="0.647" stop-color="#071846"/>
<stop offset="0.773" stop-color="#0D245A"/>
<stop offset="0.809" stop-color="#0F2961"/>
<stop offset="0.839" stop-color="#0B386E"/>
<stop offset="0.896" stop-color="#054E83"/>
<stop offset="0.951" stop-color="#015B90"/>
<stop offset="1" stop-color="#006094"/>
</linearGradient>
<linearGradient id="paint18_linear_54_2421" x1="91.9347" y1="84.0564" x2="91.9347" y2="12.5339" gradientUnits="userSpaceOnUse">
<stop stop-color="#00082E"/>
<stop offset="0.321" stop-color="#010A30"/>
<stop offset="0.501" stop-color="#030F39"/>
<stop offset="0.647" stop-color="#071846"/>
<stop offset="0.773" stop-color="#0D245A"/>
<stop offset="0.809" stop-color="#0F2961"/>
<stop offset="0.839" stop-color="#0B386E"/>
<stop offset="0.896" stop-color="#054E83"/>
<stop offset="0.951" stop-color="#015B90"/>
<stop offset="1" stop-color="#006094"/>
</linearGradient>
<linearGradient id="paint19_linear_54_2421" x1="140.417" y1="83.9337" x2="140.417" y2="12.6102" gradientUnits="userSpaceOnUse">
<stop stop-color="#00082E"/>
<stop offset="0.321" stop-color="#010A30"/>
<stop offset="0.501" stop-color="#030F39"/>
<stop offset="0.647" stop-color="#071846"/>
<stop offset="0.773" stop-color="#0D245A"/>
<stop offset="0.809" stop-color="#0F2961"/>
<stop offset="0.839" stop-color="#0B386E"/>
<stop offset="0.896" stop-color="#054E83"/>
<stop offset="0.951" stop-color="#015B90"/>
<stop offset="1" stop-color="#006094"/>
</linearGradient>
<linearGradient id="paint20_linear_54_2421" x1="121.889" y1="83.9518" x2="121.889" y2="12.5981" gradientUnits="userSpaceOnUse">
<stop stop-color="#00082E"/>
<stop offset="0.321" stop-color="#010A30"/>
<stop offset="0.501" stop-color="#030F39"/>
<stop offset="0.647" stop-color="#071846"/>
<stop offset="0.773" stop-color="#0D245A"/>
<stop offset="0.809" stop-color="#0F2961"/>
<stop offset="0.839" stop-color="#0B386E"/>
<stop offset="0.896" stop-color="#054E83"/>
<stop offset="0.951" stop-color="#015B90"/>
<stop offset="1" stop-color="#006094"/>
</linearGradient>
<linearGradient id="paint21_linear_54_2421" x1="124.235" y1="83.8935" x2="124.235" y2="12.6487" gradientUnits="userSpaceOnUse">
<stop stop-color="#00082E"/>
<stop offset="0.321" stop-color="#010A30"/>
<stop offset="0.501" stop-color="#030F39"/>
<stop offset="0.647" stop-color="#071846"/>
<stop offset="0.773" stop-color="#0D245A"/>
<stop offset="0.809" stop-color="#0F2961"/>
<stop offset="0.839" stop-color="#0B386E"/>
<stop offset="0.896" stop-color="#054E83"/>
<stop offset="0.951" stop-color="#015B90"/>
<stop offset="1" stop-color="#006094"/>
</linearGradient>
<linearGradient id="paint22_linear_54_2421" x1="85.3399" y1="84.0354" x2="85.3399" y2="12.6215" gradientUnits="userSpaceOnUse">
<stop stop-color="#00082E"/>
<stop offset="0.321" stop-color="#010A30"/>
<stop offset="0.501" stop-color="#030F39"/>
<stop offset="0.647" stop-color="#071846"/>
<stop offset="0.773" stop-color="#0D245A"/>
<stop offset="0.809" stop-color="#0F2961"/>
<stop offset="0.839" stop-color="#0B386E"/>
<stop offset="0.896" stop-color="#054E83"/>
<stop offset="0.951" stop-color="#015B90"/>
<stop offset="1" stop-color="#006094"/>
</linearGradient>
<linearGradient id="paint23_linear_54_2421" x1="104.374" y1="123.931" x2="73.5569" y2="8.91957" gradientUnits="userSpaceOnUse">
<stop stop-color="#A5A5A6"/>
<stop offset="0.35" stop-color="#D7D7D7"/>
<stop offset="0.65" stop-color="#D7D7D7"/>
<stop offset="1" stop-color="#A5A5A6"/>
</linearGradient>
<linearGradient id="paint24_linear_54_2421" x1="185.222" y1="60.3412" x2="154.472" y2="-54.418" gradientUnits="userSpaceOnUse">
<stop stop-color="#A5A5A6"/>
<stop offset="0.35" stop-color="#D7D7D7"/>
<stop offset="0.65" stop-color="#D7D7D7"/>
<stop offset="1" stop-color="#A5A5A6"/>
</linearGradient>
<clipPath id="clip0_54_2421">
<rect width="266.809" height="100" fill="white" transform="translate(0.18457)"/>
</clipPath>
</defs>
</svg>
