<svg width="151" height="100" viewBox="0 0 151 100" fill="none" xmlns="http://www.w3.org/2000/svg">
<path fill-rule="evenodd" clip-rule="evenodd" d="M9.98498 61.9937V38.2598H2.72217V61.9937H9.98498ZM70.2944 61.9937C76.8498 61.9937 78.6661 58.9774 78.6661 55.0546V38.2598H71.4033V52.6406C71.4033 54.7526 70.899 56.4623 67.0657 56.4623H63.0308C59.1975 56.4623 58.6932 54.7526 58.6932 52.6406V38.2598H51.4304V55.0546C51.4304 58.9774 53.2459 61.9937 59.8029 61.9937H70.2944ZM139.938 61.9937C146.495 61.9937 148.311 58.9774 148.311 55.0546V38.2598H141.048V52.6406C141.048 54.7526 140.544 56.4623 136.71 56.4623H132.676C128.843 56.4623 128.339 54.7526 128.339 52.6406V38.2598H121.075V55.0546C121.075 58.9774 122.891 61.9937 129.448 61.9937H139.938ZM16.8665 56.4631V61.9937H40.4704C44.4041 61.9937 45.8166 59.0778 46.1193 57.5689C46.422 56.0608 46.0181 52.7418 43.3956 51.7356L25.6927 45.0985C24.9363 44.7467 25.3394 43.7911 26.2475 43.7911H43.7995V38.2598H25.6833C21.85 38.2598 18.6221 39.6683 17.8151 42.2316C17.0851 44.5506 17.1684 48.2151 20.699 49.4221L36.6363 55.3059C37.6448 55.709 37.3927 56.4623 36.5359 56.4623L16.8665 56.4631ZM113.237 56.4631V61.9937H90.6408C86.7071 61.9937 86.0005 59.7813 85.6978 58.2731C85.3951 56.765 85.7997 53.4461 88.4215 52.4407L104.612 44.1685C104.966 44.0183 104.99 43.7919 104.637 43.7919H86.3025V38.2605H104.661C108.495 38.2605 111.692 38.4255 112.832 40.9258C113.842 43.139 113.337 46.5078 109.806 47.7147L94.6252 55.4585C93.9186 55.7604 93.8182 56.4639 94.675 56.4639L113.237 56.4631Z" fill="#E60012"/>
</svg>
