<svg width="117" height="100" viewBox="0 0 117 100" fill="none" xmlns="http://www.w3.org/2000/svg">
<g clip-path="url(#clip0_54_2476)">
<path d="M112.798 37.894C111.719 37.5927 110.517 37.4503 107.986 37.1379C97.5112 36.7082 71.6237 35.7017 58.4319 35.7017C45.2406 35.7017 19.3526 36.7076 8.87852 37.1379C6.34641 37.4503 5.1437 37.5927 4.06535 37.894C0.771908 38.6705 0.0473633 39.8528 0.0473633 42.2115V58.3774C0.0473633 60.7367 2.5748 62.3265 4.31698 62.647C6.06032 62.9699 7.1632 63.0989 8.99704 63.2735C18.3659 63.8538 40.1022 65.0635 58.4313 65.0828C76.7609 65.0653 98.4961 63.8544 107.866 63.2735C109.699 63.0989 110.802 62.9693 112.546 62.647C114.288 62.3259 116.815 60.7367 116.815 58.3774V42.2115C116.815 39.8528 116.091 38.6705 112.798 37.894Z" fill="url(#paint0_linear_54_2476)"/>
<path d="M16.4241 38.5294C21.5783 20.5997 38.5137 7.44407 58.6171 7.44407C78.6626 7.44407 95.5636 20.5273 100.768 38.3852C100.784 38.4483 100.795 38.481 100.813 38.5417C103.802 38.206 106.478 37.6875 108.37 37.1825C108.336 37.0675 108.327 37.0441 108.297 36.9309C102.382 15.6587 82.3811 0.00537109 58.6171 0.00537109C34.7731 0.00537109 14.7193 15.7603 8.87744 37.1376C11.5053 37.8574 13.4302 38.1593 16.4241 38.5294Z" fill="url(#paint1_radial_54_2476)"/>
<path d="M100.645 62.0288C100.593 62.1882 100.535 62.3639 100.509 62.4509C95.028 79.8797 78.3477 92.556 58.6181 92.556C38.7325 92.556 21.9471 79.6841 16.5997 62.0457C13.3314 62.6243 12.2274 62.8444 8.99756 63.2741C14.9819 84.4424 34.9282 99.9947 58.6181 99.9947C82.3179 99.9947 102.271 84.4261 108.244 63.2403C105.399 62.8888 103.723 62.6232 100.645 62.0288Z" fill="url(#paint2_radial_54_2476)"/>
<path d="M17.4764 38.4912C18.7171 37.9786 19.9174 37.1612 21.7886 36.6352C27.3672 22.1414 41.7495 11.8202 58.6166 11.8202C75.4312 11.8202 89.7779 22.0777 95.3915 36.5015C95.4114 36.5505 95.4318 36.6101 95.4476 36.6468C96.4133 36.9814 99.2583 38.135 100.143 38.521C100.269 38.5239 100.537 38.5332 100.814 38.5408C100.797 38.489 100.782 38.4368 100.768 38.3844C95.5614 20.5323 78.661 7.45312 58.6166 7.45312C38.5186 7.45312 21.5831 20.6029 16.4272 38.5291C16.725 38.5297 17.2919 38.504 17.4764 38.4912Z" fill="url(#paint3_radial_54_2476)"/>
<path d="M58.2965 8.66557C77.1037 8.66557 93.7753 19.88 100.09 38.3649L100.141 38.5219C100.24 38.5219 100.597 38.5348 100.812 38.5418C100.795 38.4747 100.777 38.4355 100.766 38.3853C95.5595 20.5333 78.6591 7.4541 58.6147 7.4541C38.5166 7.4541 21.5812 20.6039 16.4253 38.5301C16.827 38.5237 17.0202 38.5237 17.4756 38.4916C23.1213 20.9425 39.6277 8.66557 58.2965 8.66557Z" fill="white"/>
<path d="M99.5785 62.08C98.2275 62.8349 96.5454 63.5612 95.2008 63.9856C95.1827 64.0289 95.1062 64.2203 95.0899 64.2653C89.2737 78.2903 75.1348 88.1905 58.6169 88.1905C41.995 88.1905 27.7837 78.17 22.0352 64.0061C20.4886 63.577 18.1766 62.5225 17.3015 62.0823C16.9739 62.0666 16.7976 62.0572 16.5962 62.0467C21.9436 79.6828 38.7319 92.557 58.6175 92.557C78.4131 92.557 95.1366 79.8007 100.562 62.289C100.574 62.2551 100.634 62.0625 100.647 62.0298C100.333 62.042 99.854 62.08 99.5785 62.08Z" fill="url(#paint4_radial_54_2476)"/>
<path d="M111.862 39.0644C109.088 38.7269 107.196 38.7631 100.437 38.5301C100.13 38.5191 99.8179 38.5097 99.5009 38.4986C87.2461 38.0783 68.8377 37.5166 58.4313 37.5166C48.0255 37.5166 29.6177 38.0783 17.3611 38.4986C17.0447 38.5097 16.7335 38.5191 16.427 38.5301C9.66728 38.7631 7.77623 38.7269 5.00124 39.0644C2.22684 39.4047 0.0473633 40.6197 0.0473633 42.6859V57.6772C0.0473633 59.7445 2.67289 61.4184 5.00066 61.4184C5.00066 61.4184 34.6282 63.2476 58.4313 63.2692C82.235 63.2476 111.862 61.4184 111.862 61.4184C114.19 61.4184 116.815 59.7445 116.815 57.6772V42.6859C116.815 40.6197 114.636 39.4047 111.862 39.0644Z" fill="url(#paint5_radial_54_2476)"/>
<path d="M99.5789 62.0799C93.7644 79.3283 77.4122 91.3437 58.9413 91.3437C40.2824 91.3437 23.7259 80.3056 17.3001 62.0799C17.0642 62.0676 16.8307 62.0583 16.6001 62.0449C21.9463 79.6815 38.7375 92.5557 58.6237 92.5557C78.5163 92.5557 95.3092 79.6733 100.651 62.0273C100.299 62.0437 99.9426 62.063 99.5789 62.0799Z" fill="white"/>
<path d="M99.6123 62.0786L99.5767 62.0798C98.2257 62.8347 96.5448 63.561 95.1991 63.9854C95.181 64.0286 95.1045 64.2201 95.0887 64.2651C93.2485 68.7034 90.5745 72.7284 87.2524 76.1585C92.4521 72.3571 96.6931 67.5544 99.6123 62.0786Z" fill="#9A9EA7"/>
<path d="M31.1021 77.2745C27.1915 73.5496 24.0785 69.0406 22.035 64.005C20.4884 63.5753 18.177 62.5203 17.3013 62.0801C18.2371 64.0201 19.3405 65.8748 20.5988 67.623C23.1729 70.9755 26.293 73.9635 29.8445 76.4922C30.2578 76.7631 30.677 77.0234 31.1021 77.2745Z" fill="#4D4D4D"/>
<path d="M16.5982 62.0476V62.0464L16.5847 62.0487C13.3269 62.6261 12.2217 62.8474 8.99658 63.2748C9.25639 64.1972 9.54422 65.1063 9.85775 66.006L16.5982 62.0476Z" fill="#252525"/>
<path d="M82.1572 45.704C81.1834 43.5274 81.529 43.7557 79.4091 43.6997C79.2369 43.6413 78.7774 43.6413 78.148 43.6413C77.5198 43.6413 77.4042 43.6413 76.8881 43.6997C74.8843 43.6997 75.2276 43.5852 74.541 45.0168C74.541 45.0168 71.1016 52.748 69.614 55.955L69.5568 56.0695C69.2707 56.6411 69.443 56.6411 69.9001 56.6411H72.9939C73.2239 56.6411 73.3372 56.529 73.3944 56.4122C73.3944 56.4122 73.8527 55.4383 74.4254 54.0646H81.9856C82.5589 55.3823 82.9594 56.355 82.9594 56.4122C83.0166 56.5844 83.1889 56.6411 83.3599 56.6411H86.5675C87.0259 56.6411 87.1409 56.7012 86.9692 56.2978C86.3953 54.924 82.6728 46.9049 82.1572 45.704ZM75.5698 51.3159C76.5436 49.0255 77.5186 46.7923 77.5186 46.7345C77.5764 46.6195 77.6908 46.5622 77.8619 46.5622C77.9197 46.5039 78.0925 46.5039 78.2636 46.5039C78.3786 46.5039 78.5491 46.5039 78.6069 46.5622C78.7207 46.5622 78.8375 46.6194 78.8924 46.7917C79.1236 47.4205 79.9807 49.3687 80.7823 51.3159H75.5698ZM34.332 43.5269C34.6181 43.5269 34.6759 43.6407 34.6759 43.8702V56.1279C34.6759 56.4128 34.6181 56.5295 34.2754 56.5295H31.2966C30.9539 56.5295 30.8967 56.4712 30.8967 56.1279V43.8702C30.8967 43.6407 30.9539 43.5269 31.1822 43.5269H34.332ZM27.9746 43.6407C28.3173 43.6407 28.3763 43.7546 28.3763 44.0424V56.2423C28.3763 56.5868 28.3173 56.644 27.9746 56.644H24.4803C22.4194 56.644 22.2471 56.644 21.5605 55.4996C20.1284 53.2665 15.8319 46.6796 15.8319 46.6796V56.2435C15.8319 56.5885 15.7747 56.6446 15.432 56.6446H12.8537C12.5104 56.6446 12.4526 56.5885 12.4526 56.2435V44.0424C12.4526 43.7557 12.5104 43.6407 12.8537 43.6407H15.8319C18.0657 43.6407 18.3518 43.5841 19.1551 44.7296C19.7845 45.7612 24.9964 53.7791 24.9964 53.7791V44.0424C24.9964 43.7557 25.0536 43.6407 25.3981 43.6407H27.9746ZM104.437 43.6407C104.782 43.6407 104.838 43.7546 104.838 44.0424V56.2423C104.838 56.5868 104.781 56.644 104.437 56.644H100.946C98.8819 56.644 98.7097 56.644 98.0231 55.4996C96.5897 53.2647 92.2944 46.6784 92.2944 46.6784V56.2429C92.2944 56.5873 92.2372 56.6434 91.8927 56.6434H89.3168C88.9735 56.6434 88.9146 56.5873 88.9146 56.2429V44.0424C88.9146 43.7557 88.9741 43.6407 89.3168 43.6407H92.2944C94.5282 43.6407 94.8154 43.5841 95.6159 44.7296C96.3037 45.7612 101.459 53.7791 101.459 53.7791V44.0424C101.459 43.7557 101.517 43.6407 101.861 43.6407H104.437ZM47.4486 48.6255C49.7401 48.8538 51.4017 49.2543 51.8595 51.4315C51.8595 51.6019 51.9173 52.1753 51.9173 52.8058C51.9173 53.2075 51.9173 53.7213 51.8022 54.1802C51.4023 56.2417 49.8546 56.6422 47.4503 56.6422H37.8263C37.4824 56.6422 37.4246 56.5862 37.4246 56.2417V54.1802C37.4246 53.8357 37.4824 53.7785 37.8263 53.7785H47.5618C47.9635 53.7785 48.0779 53.6646 48.1346 53.3768V52.8613V52.518C48.0768 52.2879 48.0201 51.9447 47.5052 51.8886C46.4163 51.8314 43.2099 51.5441 41.0322 51.3159C38.2256 51.0292 37.539 49.8277 37.424 48.796C37.3668 48.4515 37.3668 47.9938 37.3668 47.5927C37.3668 47.2488 37.3668 46.7339 37.424 46.3322C37.8257 44.4984 39.2007 43.6407 41.6049 43.6407H50.9405C51.2855 43.6407 51.4006 43.6991 51.4006 43.9846V46.1045C51.4006 46.3888 51.2855 46.5044 50.9405 46.4472H41.7771C41.376 46.4472 41.205 46.6189 41.1466 47.0194V47.5349C41.1466 47.8216 41.3188 48.051 41.7193 48.1065C42.8099 48.2233 46.188 48.5093 47.4486 48.6255ZM63.9998 48.6255C66.2931 48.8538 67.953 49.2543 68.4119 51.4315C68.4119 51.6019 68.4691 52.1753 68.4691 52.8058C68.4691 53.2075 68.4691 53.7213 68.3547 54.1802C67.9547 56.2417 66.4087 56.6422 64.0022 56.6422H54.3787C54.0348 56.6422 53.977 56.5862 53.977 56.2417V54.1802C53.977 53.8357 54.0348 53.7785 54.3787 53.7785H64.116C64.5165 53.7785 64.6292 53.6646 64.6882 53.3768V52.8613V52.518C64.6286 52.2879 64.5154 51.9447 64.0576 51.8886C62.9699 51.8314 59.7623 51.5441 57.5863 51.3159C54.7787 51.0292 54.1499 49.8277 53.977 48.796C53.9198 48.4515 53.9198 47.9938 53.9198 47.5927C53.9198 47.2488 53.9198 46.7339 53.977 46.3322C54.3787 44.4984 55.7531 43.6407 58.1579 43.6407H67.4953C67.8374 43.6407 67.9536 43.6991 67.9536 43.9846V46.1045C67.9536 46.3888 67.8374 46.5044 67.4953 46.4472H58.3302C57.9296 46.4472 57.7586 46.6189 57.7002 47.0194V47.5349C57.7002 47.8216 57.8152 48.051 58.2741 48.1065C59.3624 48.2233 62.7405 48.5093 63.9998 48.6255Z" fill="url(#paint6_radial_54_2476)"/>
</g>
<defs>
<linearGradient id="paint0_linear_54_2476" x1="58.4313" y1="1.48167" x2="58.4313" y2="82.8695" gradientUnits="userSpaceOnUse">
<stop offset="0.194" stop-color="white"/>
<stop offset="0.208" stop-color="#F8F8F8"/>
<stop offset="0.366" stop-color="#AEAEAE"/>
<stop offset="0.513" stop-color="#707070"/>
<stop offset="0.647" stop-color="#404040"/>
<stop offset="0.764" stop-color="#1D1D1D"/>
<stop offset="0.86" stop-color="#080808"/>
<stop offset="0.922"/>
</linearGradient>
<radialGradient id="paint1_radial_54_2476" cx="0" cy="0" r="1" gradientUnits="userSpaceOnUse" gradientTransform="translate(25.6529 -20.0956) scale(81.424 81.424)">
<stop offset="0.202" stop-color="white"/>
<stop offset="0.382" stop-color="#FDFDFD"/>
<stop offset="0.487" stop-color="#F4F4F4"/>
<stop offset="0.573" stop-color="#E6E6E6"/>
<stop offset="0.648" stop-color="#D2D2D2"/>
<stop offset="0.689" stop-color="#C4C4C4"/>
<stop offset="1" stop-color="#333333"/>
</radialGradient>
<radialGradient id="paint2_radial_54_2476" cx="0" cy="0" r="1" gradientUnits="userSpaceOnUse" gradientTransform="translate(222.704 110.325) scale(169.576 169.576)">
<stop offset="0.202" stop-color="white"/>
<stop offset="0.368" stop-color="#E4E4E4"/>
<stop offset="0.594" stop-color="#C4C4C4"/>
<stop offset="1" stop-color="#333333"/>
</radialGradient>
<radialGradient id="paint3_radial_54_2476" cx="0" cy="0" r="1" gradientUnits="userSpaceOnUse" gradientTransform="translate(45.2105 72.9039) scale(52.0604)">
<stop offset="0.202" stop-color="white"/>
<stop offset="0.368" stop-color="#E4E4E4"/>
<stop offset="0.594" stop-color="#C4C4C4"/>
<stop offset="1" stop-color="#333333"/>
</radialGradient>
<radialGradient id="paint4_radial_54_2476" cx="0" cy="0" r="1" gradientUnits="userSpaceOnUse" gradientTransform="translate(87.2215 126.137) scale(98.7821 98.7821)">
<stop offset="0.202" stop-color="white"/>
<stop offset="0.368" stop-color="#E4E4E4"/>
<stop offset="0.594" stop-color="#C4C4C4"/>
<stop offset="1" stop-color="#333333"/>
</radialGradient>
<radialGradient id="paint5_radial_54_2476" cx="0" cy="0" r="1" gradientUnits="userSpaceOnUse" gradientTransform="translate(57.649 10.3062) scale(78.4984 78.4984)">
<stop offset="0.202" stop-color="white"/>
<stop offset="0.397" stop-color="#FDFDFD"/>
<stop offset="0.51" stop-color="#F4F4F4"/>
<stop offset="0.603" stop-color="#E6E6E6"/>
<stop offset="0.684" stop-color="#D2D2D2"/>
<stop offset="0.728" stop-color="#C4C4C4"/>
<stop offset="1" stop-color="#4D4D4D"/>
</radialGradient>
<radialGradient id="paint6_radial_54_2476" cx="0" cy="0" r="1" gradientUnits="userSpaceOnUse" gradientTransform="translate(59.4675 18.1672) scale(52.8731 52.8731)">
<stop offset="0.111" stop-color="#4D4D4D"/>
<stop offset="0.248" stop-color="#494949"/>
<stop offset="0.355" stop-color="#404040"/>
<stop offset="0.451" stop-color="#2F2F2F"/>
<stop offset="0.541" stop-color="#181818"/>
<stop offset="0.611"/>
</radialGradient>
<clipPath id="clip0_54_2476">
<rect width="116.768" height="100" fill="white" transform="translate(0.0473633)"/>
</clipPath>
</defs>
</svg>
