<svg width="163" height="100" viewBox="0 0 163 100" fill="none" xmlns="http://www.w3.org/2000/svg">
<path d="M4.96509 46.7293C4.96509 72.4906 38.4618 93.4504 79.6334 93.4504C120.804 93.4504 154.302 72.4906 154.302 46.7293C154.301 20.9657 120.804 0.00878906 79.6328 0.00878906C38.4613 0.00878906 4.96509 20.9657 4.96509 46.7293ZM7.2564 46.7293C7.2564 22.234 39.7238 2.30412 79.6334 2.30412C119.542 2.30412 152.01 22.234 152.01 46.7293C152.01 71.2298 119.542 91.1591 79.6334 91.1591C39.7238 91.1585 7.2564 71.2304 7.2564 46.7293Z" fill="white" fill-opacity="0.1"/>
<path d="M72.5776 8.5023C55.1017 9.56948 42.4084 14.2014 40.2448 20.3037C40.0245 20.9186 39.9109 21.5667 39.9091 22.2198C39.9091 23.2492 40.2001 24.2786 40.7775 25.2627C43.2029 29.3951 50.7316 32.8029 61.4452 34.6308L62.5794 34.8164L62.7696 33.6833C64.5282 22.9559 68.3885 14.5204 73.3646 10.5376L76.1841 8.27832L72.5776 8.5023ZM42.7555 24.1073C42.382 23.472 42.1982 22.8454 42.1982 22.2279C42.1982 21.8383 42.2652 21.458 42.4038 21.0707C44.0553 16.4091 55.2741 12.3374 69.6057 11.0239C65.5175 15.6483 62.3738 23.1003 60.7338 32.1538C51.4207 30.4308 44.7243 27.4635 42.7555 24.1073ZM69.3823 34.369L69.1584 35.6154L70.4226 35.7117C73.4208 35.9357 76.5204 36.0565 79.6302 36.0565C82.743 36.0565 85.8443 35.9357 88.8431 35.7117L90.105 35.6154L89.8805 34.369C88.1568 24.6893 84.3223 18.9072 79.632 18.9072C74.9382 18.9072 71.1054 24.6893 69.3823 34.369ZM79.6325 21.1985C82.8392 21.1985 85.7996 26.0005 87.3594 33.4966C84.8235 33.6621 82.2406 33.7652 79.6302 33.7652C77.0233 33.7652 74.4393 33.6621 71.9062 33.4966C73.4614 26.0005 76.4264 21.1985 79.6325 21.1985ZM85.8981 10.5387C90.8726 14.5216 94.7369 22.9582 96.4955 33.6844L96.6834 34.8175L97.8159 34.6319C108.534 32.804 116.067 29.3951 118.484 25.2633C119.424 23.6754 119.602 21.9603 119.021 20.3054C116.858 14.2037 104.164 9.57177 86.6892 8.50344L83.0873 8.27947L85.8981 10.5387ZM89.6639 11.0239C103.992 12.3374 115.21 16.4165 116.857 21.0707C117 21.458 117.067 21.8383 117.067 22.2279C117.067 22.8454 116.879 23.472 116.514 24.1073C114.538 27.4629 107.84 30.4308 98.5313 32.1538C96.8913 23.1008 93.7522 15.6489 89.6639 11.0239ZM29.1869 24.801C21.3328 31.3799 17.1821 39.1956 17.1821 47.4071C17.1821 66.7241 40.7369 83.052 71.9692 85.3788L75.4578 85.6406L72.8016 83.3716C65.9591 77.5179 61.7099 63.6291 61.7099 47.123L61.7815 43.2232L60.8237 43.0284C44.3955 40.0841 32.7081 33.1763 31.044 25.4409L30.6459 23.5837L29.1869 24.801ZM19.4757 47.4071C19.4757 40.3659 22.9104 33.6083 29.3593 27.739C32.3638 35.5553 43.5901 42.0667 59.4586 45.0963C59.4386 45.9911 59.4208 47.123 59.4208 47.123C59.4208 62.4279 63.0526 75.6453 69.0426 82.7765C40.5845 79.7399 19.4757 64.8756 19.4757 47.4071ZM68.4492 45.3427L68.4423 45.7585C68.4423 61.1012 73.2529 72.6764 79.6325 72.6764C86.0098 72.6764 90.821 61.1012 90.821 45.7585L90.8056 44.1031L89.5751 44.2085C86.3306 44.4926 82.9899 44.6335 79.6337 44.6335C76.2775 44.6335 72.9322 44.4926 69.6962 44.2085L68.4612 44.0968L68.4492 45.3427ZM88.516 46.5725C88.3436 60.848 83.8463 70.3868 79.6325 70.3868C75.4148 70.3868 70.9169 60.848 70.7491 46.5725C73.6625 46.7873 76.6384 46.9214 79.6325 46.9214C82.6313 46.9214 85.5986 46.7873 88.516 46.5725ZM128.217 25.4409C126.555 33.1763 114.865 40.0835 98.442 43.0284L97.4796 43.2072L97.5558 47.1224C97.5558 63.6285 93.3043 77.5179 86.4641 83.3711L83.8079 85.64L87.2918 85.3783C118.527 83.0514 142.082 66.7235 142.082 47.4066C142.082 39.1951 137.927 31.3794 130.073 24.8004L128.619 23.5832L128.217 25.4409ZM129.902 27.739C136.355 33.6083 139.792 40.3659 139.792 47.4071C139.792 64.8756 118.685 79.7399 90.2236 82.7765C96.2137 75.6453 99.8454 62.4279 99.8454 47.123C99.8454 47.123 99.8231 45.9905 99.8076 45.0963C115.671 42.0667 126.897 35.5547 129.902 27.739Z" fill="white" fill-opacity="0.1"/>
<path d="M129.029 19.5431C129.135 19.8341 129.231 20.1308 129.307 20.4292C129.738 22.1454 129.649 23.8307 129.089 25.473C136.541 31.6177 140.933 39.1963 140.933 47.4078C140.933 67.9036 113.487 84.5225 79.6325 84.5225C45.776 84.5225 18.3318 67.9036 18.3318 47.4078C18.3318 39.2031 22.7288 31.6183 30.171 25.473C29.6159 23.8307 29.5266 22.1454 29.9585 20.4292C30.0479 20.1036 30.1669 19.7868 30.3142 19.4829C20.1465 26.7269 13.9817 36.2204 13.9817 46.6178C13.9817 69.3202 43.3724 87.7223 79.6319 87.7223C115.887 87.7223 145.282 69.3202 145.282 46.6178C145.283 36.2422 139.143 26.7704 129.029 19.5431Z" fill="url(#paint0_linear_54_2454)"/>
<path d="M88.7532 34.5706C85.8598 34.7877 82.8101 34.9063 79.6303 34.9063C76.4528 34.9063 73.4054 34.7877 70.512 34.5706H70.5028L68.6119 35.9442C72.1005 36.2484 75.7843 36.4208 79.632 36.4208C83.4803 36.4208 87.1636 36.2484 90.6544 35.9442L88.7532 34.5706ZM122.287 20.1691C119.983 12.5522 100.985 6.9585 79.6326 6.9585C58.2832 6.9585 39.2865 12.5533 36.982 20.1691C34.9817 26.7767 45.901 32.8922 63.1282 35.3176L61.6314 33.4954C47.6956 31.1239 39.4125 26.0669 41.3235 20.6904C43.6394 14.1624 60.4611 9.43541 79.6309 9.43541C98.8 9.43541 115.626 14.1635 117.939 20.6904C119.848 26.0675 111.569 31.1244 97.6297 33.4954L96.1381 35.3176C113.359 32.8922 124.286 26.7767 122.287 20.1691Z" fill="url(#paint1_linear_54_2454)"/>
<path d="M70.5355 34.5705C72.1354 25.6802 75.6062 20.1243 79.6315 20.1243C83.6613 20.1243 87.1292 25.6802 88.7314 34.5705H88.7635L90.6349 35.9287C89.0551 24.188 84.7279 16.6851 79.6343 16.6851C74.5373 16.6851 70.2118 24.188 68.6343 35.9287L70.5051 34.5705H70.5355Z" fill="url(#paint2_linear_54_2454)"/>
<path d="M91.2019 42.5806L89.6713 45.3485C89.6713 45.5501 89.6805 45.7575 89.6805 45.9677C89.6805 60.7043 85.174 71.8779 79.6319 71.8779C74.0846 71.8779 69.5873 60.7032 69.5873 45.9677C69.5873 45.7351 69.5919 45.5043 69.5965 45.2815L68.0636 42.5806C68.0185 43.7039 67.9962 44.828 67.9966 45.9522C67.9966 62.66 73.2059 75.316 79.6342 75.316C86.0625 75.316 91.2764 62.66 91.2764 45.9522C91.2741 44.828 91.2492 43.7038 91.2019 42.5806Z" fill="url(#paint3_linear_54_2454)"/>
<path d="M63.1529 35.3241C65.3549 19.0053 71.9 6.95703 79.6332 6.95703C71.3426 6.95703 64.2762 17.6311 61.6538 33.5271L63.1306 35.3241H63.1529Z" fill="url(#paint4_linear_54_2454)"/>
<path d="M96.1159 35.3241H96.1314L97.6081 33.5271C94.9903 17.6311 87.9193 6.95703 79.6333 6.95703C87.3665 6.95818 93.9162 19.0053 96.1159 35.3241Z" fill="url(#paint5_linear_54_2454)"/>
<path d="M98.6369 44.1472L96.7575 41.9028H96.742C96.8474 43.686 96.9075 45.4985 96.9075 47.3396C96.9075 69.6421 89.1721 87.7211 79.6333 87.7211C90.3286 87.7211 98.6976 70.9533 98.6976 47.3396C98.6976 46.2592 98.6753 45.1995 98.6369 44.1472Z" fill="url(#paint6_linear_54_2454)"/>
<path d="M62.3627 47.34C62.3627 45.499 62.4229 43.6865 62.526 41.9033H62.5134L60.6293 44.1408C60.5894 45.2067 60.5686 46.2733 60.5669 47.34C60.5669 70.9538 68.9422 87.7216 79.6335 87.7216C70.0982 87.7216 62.3627 69.642 62.3627 47.34Z" fill="url(#paint7_linear_54_2454)"/>
<path d="M129.09 25.472C131.939 27.8218 134.342 30.3857 136.221 33.109C135.57 28.7779 133.847 24.6783 131.209 21.1827C130.497 20.6169 129.77 20.0702 129.029 19.5432C129.135 19.8342 129.231 20.1309 129.305 20.4294C129.739 22.145 129.649 23.8297 129.09 25.472ZM30.172 25.472C29.6169 23.8297 29.5275 22.1444 29.9595 20.4282C30.0488 20.1026 30.1679 19.7858 30.3152 19.4819C29.5511 20.0333 28.7984 20.6003 28.0577 21.1827C25.4229 24.6805 23.7004 28.7791 23.0454 33.109C24.9249 30.3857 27.3233 27.8212 30.172 25.472Z" fill="#2D2F34"/>
<path d="M6.11084 46.7294C6.11084 21.5627 39.0256 1.15625 79.6335 1.15625C120.236 1.15625 153.151 21.5627 153.151 46.7294C153.151 71.9012 120.236 92.3003 79.6335 92.3003C39.0256 92.2997 6.11084 71.9018 6.11084 46.7294ZM79.6329 87.7216C115.888 87.7216 145.283 69.3195 145.283 46.6171C145.283 23.9125 115.888 5.50402 79.6329 5.50402C43.3728 5.50402 13.9804 23.9136 13.9804 46.6171C13.9804 69.3195 43.3734 87.7216 79.6329 87.7216Z" fill="url(#paint8_linear_54_2454)"/>
<path d="M62.3638 47.3401C62.3638 25.2718 70.0993 6.9585 79.6334 6.9585C89.1722 6.9585 96.9082 25.2718 96.9082 47.3401C96.9082 69.6426 89.1722 87.7217 79.6334 87.7217C70.0947 87.7217 62.3638 69.642 62.3638 47.3401ZM79.6334 75.3165C86.0623 75.3165 91.2762 62.6604 91.2762 45.9596C91.2762 28.6275 86.0617 16.6857 79.6334 16.6857C73.2051 16.6857 67.9958 28.6275 67.9958 45.9596C67.9958 62.6604 73.2051 75.3165 79.6334 75.3165Z" fill="url(#paint9_linear_54_2454)"/>
<path d="M29.9597 20.4284C31.8546 12.9261 54.7712 2.00684 79.6332 2.00684C104.493 2.00684 126.622 9.80877 129.307 20.4284C132.312 32.3318 110.227 43.1045 79.6332 43.1045C49.0343 43.1045 26.9501 32.3324 29.9597 20.4284ZM79.6332 6.95837C58.2838 6.95837 39.2871 12.5532 36.9826 20.169C34.4003 28.7013 53.3615 36.4207 79.6332 36.4207C105.91 36.4207 124.868 28.7001 122.288 20.169C119.983 12.552 100.987 6.95837 79.6332 6.95837Z" fill="url(#paint10_linear_54_2454)"/>
<path d="M68.0407 42.5588L68.0538 42.568L69.6314 45.3491C72.8421 45.6235 76.1811 45.7804 79.6336 45.7804C83.1021 45.7804 86.4491 45.624 89.681 45.3422L91.2162 42.5668L91.2254 42.5577C87.5335 42.9088 83.6623 43.1036 79.6347 43.1036C75.7636 43.1058 71.8945 42.924 68.0407 42.5588ZM129.567 23.0024C129.173 31.5135 116.09 39.0543 96.7514 41.8961L96.7583 41.9029L98.6446 44.157C117.567 40.7556 130.015 32.4003 129.567 23.0024ZM29.7006 23.0024C29.2533 32.4094 41.7003 40.755 60.6191 44.157L62.51 41.9029L62.5146 41.8961C43.1724 39.0548 30.0988 31.5141 29.7006 23.0024Z" fill="url(#paint11_linear_54_2454)"/>
<defs>
<linearGradient id="paint0_linear_54_2454" x1="79.6319" y1="82.6448" x2="79.6319" y2="30.7149" gradientUnits="userSpaceOnUse">
<stop stop-color="#F0F3F5"/>
<stop offset="0.056" stop-color="#E2E5E8"/>
<stop offset="0.138" stop-color="#D4D8DD"/>
<stop offset="0.242" stop-color="#CCD0D6"/>
<stop offset="0.44" stop-color="#CACED4"/>
<stop offset="0.568" stop-color="#B3B7BD"/>
<stop offset="0.835" stop-color="#797C83"/>
<stop offset="1" stop-color="#52545C"/>
</linearGradient>
<linearGradient id="paint1_linear_54_2454" x1="79.6343" y1="43.0771" x2="79.6343" y2="14.9374" gradientUnits="userSpaceOnUse">
<stop stop-color="#F0F3F5"/>
<stop offset="0.056" stop-color="#E2E5E8"/>
<stop offset="0.138" stop-color="#D4D8DD"/>
<stop offset="0.242" stop-color="#CCD0D6"/>
<stop offset="0.44" stop-color="#CACED4"/>
<stop offset="0.568" stop-color="#B3B7BD"/>
<stop offset="0.835" stop-color="#797C83"/>
<stop offset="1" stop-color="#52545C"/>
</linearGradient>
<linearGradient id="paint2_linear_54_2454" x1="88.976" y1="37.9049" x2="71.4056" y2="23.1615" gradientUnits="userSpaceOnUse">
<stop stop-color="#F0F3F5"/>
<stop offset="0.056" stop-color="#E2E5E8"/>
<stop offset="0.138" stop-color="#D4D8DD"/>
<stop offset="0.242" stop-color="#CCD0D6"/>
<stop offset="0.44" stop-color="#CACED4"/>
<stop offset="0.568" stop-color="#B3B7BD"/>
<stop offset="0.835" stop-color="#797C83"/>
<stop offset="1" stop-color="#52545C"/>
</linearGradient>
<linearGradient id="paint3_linear_54_2454" x1="90.7631" y1="62.4314" x2="65.1422" y2="47.6392" gradientUnits="userSpaceOnUse">
<stop stop-color="#F0F3F5"/>
<stop offset="0.056" stop-color="#E2E5E8"/>
<stop offset="0.138" stop-color="#D4D8DD"/>
<stop offset="0.242" stop-color="#CCD0D6"/>
<stop offset="0.44" stop-color="#CACED4"/>
<stop offset="0.568" stop-color="#B3B7BD"/>
<stop offset="0.835" stop-color="#797C83"/>
<stop offset="1" stop-color="#52545C"/>
</linearGradient>
<linearGradient id="paint4_linear_54_2454" x1="70.6438" y1="1.15198" x2="70.6438" y2="45.7845" gradientUnits="userSpaceOnUse">
<stop stop-color="#F0F3F5"/>
<stop offset="0.056" stop-color="#E2E5E8"/>
<stop offset="0.138" stop-color="#D4D8DD"/>
<stop offset="0.242" stop-color="#CCD0D6"/>
<stop offset="0.44" stop-color="#CACED4"/>
<stop offset="0.568" stop-color="#B3B7BD"/>
<stop offset="0.835" stop-color="#797C83"/>
<stop offset="1" stop-color="#52545C"/>
</linearGradient>
<linearGradient id="paint5_linear_54_2454" x1="88.621" y1="1.15198" x2="88.621" y2="45.7845" gradientUnits="userSpaceOnUse">
<stop stop-color="#F0F3F5"/>
<stop offset="0.056" stop-color="#E2E5E8"/>
<stop offset="0.138" stop-color="#D4D8DD"/>
<stop offset="0.242" stop-color="#CCD0D6"/>
<stop offset="0.44" stop-color="#CACED4"/>
<stop offset="0.568" stop-color="#B3B7BD"/>
<stop offset="0.835" stop-color="#797C83"/>
<stop offset="1" stop-color="#52545C"/>
</linearGradient>
<linearGradient id="paint6_linear_54_2454" x1="89.1652" y1="0.777138" x2="89.1652" y2="75.2644" gradientUnits="userSpaceOnUse">
<stop stop-color="#F0F3F5"/>
<stop offset="0.056" stop-color="#E2E5E8"/>
<stop offset="0.138" stop-color="#D4D8DD"/>
<stop offset="0.242" stop-color="#CCD0D6"/>
<stop offset="0.44" stop-color="#CACED4"/>
<stop offset="0.568" stop-color="#B3B7BD"/>
<stop offset="0.835" stop-color="#797C83"/>
<stop offset="1" stop-color="#52545C"/>
</linearGradient>
<linearGradient id="paint7_linear_54_2454" x1="70.0999" y1="0.777049" x2="70.0999" y2="75.2643" gradientUnits="userSpaceOnUse">
<stop stop-color="#F0F3F5"/>
<stop offset="0.056" stop-color="#E2E5E8"/>
<stop offset="0.138" stop-color="#D4D8DD"/>
<stop offset="0.242" stop-color="#CCD0D6"/>
<stop offset="0.44" stop-color="#CACED4"/>
<stop offset="0.568" stop-color="#B3B7BD"/>
<stop offset="0.835" stop-color="#797C83"/>
<stop offset="1" stop-color="#52545C"/>
</linearGradient>
<linearGradient id="paint8_linear_54_2454" x1="79.6306" y1="1.15625" x2="79.6306" y2="92.3003" gradientUnits="userSpaceOnUse">
<stop stop-color="#F0F3F5"/>
<stop offset="0.253" stop-color="#EDF0F3"/>
<stop offset="0.406" stop-color="#E5E8EA"/>
<stop offset="0.531" stop-color="#D7DADC"/>
<stop offset="0.642" stop-color="#C3C5C9"/>
<stop offset="0.744" stop-color="#A9ABAF"/>
<stop offset="0.839" stop-color="#888B90"/>
<stop offset="0.926" stop-color="#63656B"/>
<stop offset="1" stop-color="#3D3F46"/>
</linearGradient>
<linearGradient id="paint9_linear_54_2454" x1="79.6357" y1="1.15173" x2="79.6357" y2="92.3014" gradientUnits="userSpaceOnUse">
<stop stop-color="#F0F3F5"/>
<stop offset="0.253" stop-color="#EDF0F3"/>
<stop offset="0.406" stop-color="#E5E8EA"/>
<stop offset="0.531" stop-color="#D7DADC"/>
<stop offset="0.642" stop-color="#C3C5C9"/>
<stop offset="0.744" stop-color="#A9ABAF"/>
<stop offset="0.839" stop-color="#888B90"/>
<stop offset="0.926" stop-color="#63656B"/>
<stop offset="1" stop-color="#3D3F46"/>
</linearGradient>
<linearGradient id="paint10_linear_54_2454" x1="79.6332" y1="1.16134" x2="79.6332" y2="92.3088" gradientUnits="userSpaceOnUse">
<stop stop-color="#F0F3F5"/>
<stop offset="0.253" stop-color="#EDF0F3"/>
<stop offset="0.406" stop-color="#E5E8EA"/>
<stop offset="0.531" stop-color="#D7DADC"/>
<stop offset="0.642" stop-color="#C3C5C9"/>
<stop offset="0.744" stop-color="#A9ABAF"/>
<stop offset="0.839" stop-color="#888B90"/>
<stop offset="0.926" stop-color="#63656B"/>
<stop offset="1" stop-color="#3D3F46"/>
</linearGradient>
<linearGradient id="paint11_linear_54_2454" x1="79.6342" y1="20.0598" x2="79.6342" y2="46.0365" gradientUnits="userSpaceOnUse">
<stop stop-color="#CACED4"/>
<stop offset="1" stop-color="#52545C"/>
</linearGradient>
</defs>
</svg>
